<svg width="443" height="423" viewBox="0 0 443 423" fill="none" xmlns="http://www.w3.org/2000/svg">
<path d="M358.609 197.18L344.568 232.891L397.549 253.722L411.59 218.011L358.609 197.18Z" fill="#EBEBEB"/>
<path d="M411.62 218.502C411.626 218.519 411.391 218.615 410.94 218.783C410.44 218.963 409.781 219.2 408.957 219.495C407.174 220.111 404.683 220.971 401.625 222.027C395.368 224.135 386.803 227.021 377.317 230.217L377.117 230.285L377.011 230.101C376.93 229.961 376.843 229.809 376.755 229.657C371.727 220.864 367.177 212.907 363.85 207.089C362.241 204.226 360.93 201.892 359.991 200.221C359.564 199.44 359.223 198.814 358.964 198.341C358.734 197.908 358.621 197.677 358.637 197.668C358.652 197.659 358.796 197.873 359.055 198.289C359.335 198.751 359.704 199.36 360.166 200.121C361.14 201.772 362.5 204.078 364.168 206.907C367.529 212.705 372.125 220.636 377.204 229.399C377.291 229.551 377.379 229.703 377.459 229.843L377.153 229.727C386.658 226.588 395.24 223.753 401.509 221.683C404.588 220.692 407.096 219.884 408.892 219.306C409.729 219.048 410.398 218.841 410.906 218.685C411.369 218.549 411.614 218.485 411.62 218.502Z" fill="#E0E0E0"/>
<path d="M344.594 233.381C344.526 233.255 350.435 229.927 357.791 225.947C365.149 221.966 371.167 218.842 371.235 218.967C371.303 219.092 365.395 222.42 358.037 226.402C350.681 230.381 344.662 233.506 344.594 233.381Z" fill="#E0E0E0"/>
<path d="M389.023 225.446C389.16 225.405 391.186 231.813 393.548 239.756C395.911 247.702 397.715 254.174 397.578 254.215C397.441 254.256 395.416 247.849 393.053 239.904C390.69 231.96 388.886 225.486 389.023 225.446Z" fill="#E0E0E0"/>
<path d="M183.521 347.454L132.584 372.88L149.722 407.213L200.659 381.787L183.521 347.454Z" fill="#EBEBEB"/>
<path d="M183.906 347.788C183.922 347.795 183.837 348.034 183.66 348.482C183.459 348.974 183.194 349.622 182.862 350.433C182.126 352.17 181.099 354.597 179.837 357.575C177.216 363.635 173.629 371.93 169.656 381.118L169.572 381.312L169.365 381.268C169.207 381.234 169.036 381.198 168.864 381.161C158.965 379.013 150.008 377.069 143.458 375.648C140.254 374.927 137.642 374.34 135.772 373.919C134.906 373.713 134.213 373.548 133.688 373.423C133.213 373.304 132.965 373.233 132.969 373.216C132.973 373.199 133.228 373.235 133.71 373.321C134.24 373.422 134.94 373.555 135.815 373.722C137.693 374.104 140.317 374.636 143.536 375.29C150.093 376.673 159.063 378.565 168.973 380.655C169.145 380.692 169.316 380.728 169.474 380.762L169.183 380.911C173.211 371.747 176.848 363.473 179.505 357.429C180.829 354.478 181.908 352.074 182.68 350.352C183.048 349.558 183.343 348.922 183.566 348.44C183.773 348.005 183.889 347.78 183.906 347.788Z" fill="#E0E0E0"/>
<path d="M150.106 407.549C149.967 407.515 151.448 400.897 153.414 392.768C155.38 384.636 157.086 378.074 157.225 378.107C157.364 378.14 155.883 384.758 153.917 392.889C151.951 401.019 150.245 407.583 150.106 407.549Z" fill="#E0E0E0"/>
<path d="M173.942 369.226C174.003 369.097 180.121 371.88 187.604 375.44C195.089 379.002 201.106 381.993 201.045 382.122C200.984 382.251 194.868 379.469 187.382 375.907C179.899 372.346 173.881 369.354 173.942 369.226Z" fill="#E0E0E0"/>
<path d="M99.871 218.583C119.227 205.663 123.952 181.22 123.538 159.178C123.469 155.497 123.937 151.626 122.216 148.374C120.493 145.121 116.393 142.854 113.032 144.354C110.246 145.598 108.989 148.757 107.4 151.361C105.286 154.825 102.173 157.673 98.534 159.469C96.142 160.649 93.195 161.348 90.872 160.037C87.685 158.238 87.374 153.852 87.454 150.192C87.603 143.377 87.752 136.561 87.901 129.745C87.981 126.087 88.051 122.354 86.952 118.865C85.854 115.377 83.358 112.114 79.847 111.086C76.336 110.059 71.945 112 71.145 115.569C70.812 117.055 71.096 118.606 70.969 120.122C70.842 121.638 70.099 123.308 68.631 123.71C67.146 124.116 65.679 123.056 64.587 121.97C60.82 118.219 58.298 113.423 55.946 108.655C53.593 103.888 51.314 99.01 47.906 94.93C44.498 90.85 39.746 87.586 34.444 87.21C29.141 86.834 23.436 89.983 22.014 95.106C20.589 100.242 23.556 105.519 26.808 109.743C31.632 116.01 37.368 121.573 43.779 126.204C44.935 127.04 46.187 127.943 46.614 129.304C47.38 131.753 45.001 134.142 42.55 134.907C39.773 135.773 36.78 135.445 33.885 135.738C30.99 136.031 27.839 137.241 26.704 139.92C25.129 143.637 28.236 147.603 31.313 150.215C37.475 155.447 44.54 159.614 52.101 162.476C54.812 163.503 57.667 164.408 59.836 166.331C62.005 168.255 63.28 171.561 61.913 174.117C60.544 176.677 57.121 177.45 54.274 176.885C51.427 176.32 48.894 174.752 46.189 173.698C41.125 171.725 34.543 171.973 31.214 176.268C29.026 179.091 28.775 183.065 29.806 186.485C30.837 189.905 32.99 192.869 35.283 195.608C43.299 205.182 53.63 212.947 65.382 217.167C77.134 221.387 88.064 222.645 99.871 218.583Z" fill="#EBEBEB"/>
<path d="M94.267 204.701C91.152 193.537 86.71 181.58 81.632 169.226C80.35 166.143 79.084 163.097 77.836 160.094C76.585 157.098 75.343 154.131 73.947 151.301C71.18 145.629 68.082 140.384 64.984 135.493C61.886 130.601 58.765 126.069 55.816 121.851C52.858 117.639 50.025 113.764 47.292 110.341C41.844 103.472 36.798 98.455 33.193 95.147C31.392 93.487 29.954 92.243 28.969 91.411C28.489 91.011 28.116 90.7 27.844 90.473C27.588 90.264 27.448 90.168 27.448 90.168C27.448 90.168 27.563 90.293 27.807 90.516C28.07 90.752 28.433 91.078 28.897 91.495C29.857 92.354 31.272 93.622 33.047 95.304C36.603 98.657 41.592 103.701 46.986 110.584C49.695 114.014 52.503 117.896 55.441 122.114C58.371 126.341 61.473 130.876 64.553 135.766C67.634 140.652 70.713 145.888 73.461 151.538C74.847 154.357 76.077 157.304 77.329 160.306C78.577 163.308 79.841 166.353 81.121 169.435C86.196 181.78 90.643 193.71 93.777 204.838" fill="#E0E0E0"/>
<path d="M73.809 151.245C73.847 151.252 73.974 150.696 74.171 149.686C74.373 148.677 74.622 147.208 74.905 145.391C75.475 141.756 76.095 136.71 76.767 131.145C77.438 125.576 78.146 120.553 78.793 116.94C79.111 115.131 79.386 113.671 79.591 112.665C79.79 111.658 79.884 111.095 79.846 111.086C79.809 111.077 79.646 111.623 79.381 112.617C79.111 113.611 78.776 115.064 78.409 116.867C77.66 120.472 76.89 125.505 76.218 131.078C75.561 136.596 74.966 141.589 74.519 145.337C74.293 147.081 74.104 148.532 73.959 149.653C73.826 150.671 73.771 151.238 73.809 151.245Z" fill="#E0E0E0"/>
<path d="M26.298 141.746C26.297 141.765 26.466 141.794 26.787 141.833C27.174 141.872 27.638 141.919 28.196 141.975C29.418 142.092 31.187 142.258 33.365 142.535C37.723 143.053 43.719 143.987 50.286 145.309C56.853 146.644 62.742 148.109 66.968 149.297C69.086 149.876 70.786 150.392 71.963 150.744C72.501 150.902 72.949 151.034 73.321 151.143C73.634 151.229 73.8 151.265 73.807 151.246C73.813 151.228 73.658 151.157 73.356 151.037C72.992 150.901 72.555 150.736 72.029 150.54C70.872 150.125 69.185 149.55 67.076 148.921C62.867 147.635 56.976 146.106 50.393 144.768C43.811 143.442 37.788 142.566 33.405 142.147C31.217 141.92 29.438 141.812 28.209 141.761C27.647 141.746 27.181 141.733 26.792 141.722C26.471 141.719 26.299 141.726 26.298 141.746Z" fill="#E0E0E0"/>
<path d="M93.751 203.811C93.768 203.819 93.879 203.621 94.074 203.237C94.29 202.796 94.566 202.235 94.906 201.543C95.623 200.07 96.608 197.914 97.791 195.234C100.163 189.877 103.211 182.379 106.469 174.062C109.729 165.743 112.716 158.23 114.994 152.84C116.123 150.198 117.046 148.037 117.716 146.466C118.017 145.757 118.261 145.182 118.452 144.731C118.615 144.332 118.692 144.118 118.675 144.11C118.658 144.102 118.547 144.3 118.351 144.685C118.136 145.125 117.861 145.686 117.52 146.378C116.803 147.851 115.819 150.007 114.636 152.687C112.263 158.044 109.215 165.542 105.956 173.862C102.697 182.178 99.709 189.69 97.432 195.081C96.303 197.722 95.38 199.884 94.71 201.455C94.408 202.164 94.165 202.739 93.974 203.191C93.811 203.589 93.734 203.803 93.751 203.811Z" fill="#E0E0E0"/>
<path d="M30.749 182.727C30.744 182.745 30.96 182.832 31.377 182.98C31.852 183.141 32.46 183.348 33.211 183.603C34.872 184.157 37.163 184.92 39.965 185.854C45.664 187.761 53.504 190.491 62.159 193.529C70.817 196.567 78.683 199.242 84.417 201.055C87.285 201.963 89.61 202.676 91.227 203.139C91.991 203.355 92.609 203.529 93.091 203.665C93.519 203.779 93.746 203.83 93.752 203.811C93.758 203.793 93.541 203.706 93.123 203.558C92.649 203.397 92.042 203.19 91.291 202.935C89.631 202.381 87.34 201.619 84.538 200.685C78.838 198.778 70.998 196.046 62.34 193.008C53.685 189.971 45.819 187.296 40.086 185.483C37.218 184.575 34.892 183.862 33.275 183.399C32.512 183.184 31.894 183.01 31.411 182.874C30.981 182.759 30.755 182.708 30.749 182.727Z" fill="#E0E0E0"/>
<path d="M100.817 42.559H44.393C40.506 42.559 37.355 39.408 37.355 35.521V7.64298C37.355 3.75598 40.506 0.60498 44.393 0.60498H100.817C104.704 0.60498 107.855 3.75598 107.855 7.64298V35.521C107.855 39.408 104.704 42.559 100.817 42.559Z" fill="#E0E0E0"/>
<path d="M80.243 41.219L96.911 56.021L98.279 41.481" fill="#E0E0E0"/>
<path d="M63.436 22.1759C63.436 24.4429 61.598 26.2809 59.331 26.2809C57.064 26.2809 55.226 24.4429 55.226 22.1759C55.226 19.9089 57.064 18.0709 59.331 18.0709C61.598 18.0709 63.436 19.9089 63.436 22.1759Z" fill="white"/>
<path d="M77.564 22.1759C77.564 24.4429 75.726 26.2809 73.459 26.2809C71.192 26.2809 69.354 24.4429 69.354 22.1759C69.354 19.9089 71.192 18.0709 73.459 18.0709C75.726 18.0709 77.564 19.9089 77.564 22.1759Z" fill="white"/>
<path d="M91.692 22.1759C91.692 24.4429 89.854 26.2809 87.587 26.2809C85.32 26.2809 83.482 24.4429 83.482 22.1759C83.482 19.9089 85.32 18.0709 87.587 18.0709C89.854 18.0709 91.692 19.9089 91.692 22.1759Z" fill="white"/>
<path d="M304.981 45.5858L290.94 81.2966L343.921 102.128L357.962 66.4172L304.981 45.5858Z" fill="#EBEBEB"/>
<path d="M357.984 66.904C357.99 66.921 357.755 67.017 357.304 67.185C356.804 67.365 356.145 67.602 355.321 67.898C353.538 68.514 351.047 69.374 347.99 70.43C341.733 72.538 333.168 75.424 323.682 78.62L323.482 78.687L323.376 78.503C323.295 78.363 323.208 78.211 323.12 78.059C318.092 69.266 313.542 61.309 310.215 55.491C308.606 52.628 307.295 50.294 306.356 48.623C305.929 47.842 305.588 47.216 305.329 46.743C305.099 46.31 304.986 46.079 305.002 46.07C305.018 46.061 305.161 46.275 305.42 46.691C305.7 47.153 306.069 47.762 306.531 48.523C307.505 50.174 308.865 52.48 310.533 55.309C313.894 61.107 318.49 69.038 323.569 77.801C323.657 77.953 323.744 78.105 323.824 78.245L323.519 78.129C333.024 74.99 341.606 72.155 347.875 70.084C350.954 69.093 353.462 68.285 355.258 67.707C356.095 67.449 356.764 67.242 357.272 67.086C357.733 66.951 357.978 66.888 357.984 66.904Z" fill="#E0E0E0"/>
<path d="M290.958 81.7829C290.89 81.6569 296.799 78.3289 304.155 74.3489C311.513 70.3679 317.531 67.2429 317.599 67.3689C317.667 67.4939 311.759 70.8219 304.401 74.8039C297.045 78.7839 291.026 81.9089 290.958 81.7829Z" fill="#E0E0E0"/>
<path d="M335.386 73.848C335.523 73.807 337.549 80.215 339.911 88.158C342.274 96.104 344.078 102.576 343.941 102.617C343.804 102.658 341.778 96.251 339.416 88.305C337.054 80.362 335.249 73.889 335.386 73.848Z" fill="#E0E0E0"/>
<path d="M437.102 422.416C437.102 422.56 339.446 422.676 219.01 422.676C98.532 422.676 0.897003 422.56 0.897003 422.416C0.897003 422.272 98.532 422.156 219.01 422.156C339.447 422.155 437.102 422.272 437.102 422.416Z" fill="#263238"/>
<path d="M226.899 214.917C234.024 214.917 239.8 209.141 239.8 202.016C239.8 194.891 234.024 189.115 226.899 189.115C219.774 189.115 213.998 194.891 213.998 202.016C213.998 209.141 219.774 214.917 226.899 214.917Z" fill="#407BFF"/>
<path d="M271.299 214.917C278.424 214.917 284.2 209.141 284.2 202.016C284.2 194.891 278.424 189.115 271.299 189.115C264.174 189.115 258.398 194.891 258.398 202.016C258.398 209.141 264.174 214.917 271.299 214.917Z" fill="#407BFF"/>
<path d="M357.161 135.27C357.161 135.242 357.414 135.226 357.918 135.224C358.421 135.209 359.176 135.27 360.152 135.469C361.134 135.649 362.318 136.069 363.62 136.772C364.913 137.488 366.301 138.566 367.5 140.117C368.703 141.653 369.704 143.686 370.051 146.092C370.177 146.686 370.158 147.313 370.209 147.941C370.215 148.555 370.221 149.182 370.228 149.822C370.24 151.103 370.252 152.437 370.265 153.823C370.307 159.368 370.355 165.746 370.409 172.899C370.48 187.207 370.565 204.613 370.664 224.639C370.682 229.646 370.701 234.817 370.72 240.144C370.729 242.808 370.738 245.51 370.747 248.251C370.751 249.621 370.756 251.001 370.76 252.391C370.762 253.086 370.764 253.783 370.767 254.482C370.736 255.232 370.717 255.99 370.575 256.738C370.1 259.736 368.562 262.611 366.217 264.676C363.9 266.751 360.804 268.072 357.592 268.138C351.659 268.159 345.584 268.182 339.374 268.204L340.451 267.223C339.272 280.032 338.028 293.558 336.736 307.6L336.534 309.791L334.833 308.389C319.459 295.721 303.022 282.177 285.923 268.087L286.721 268.374C255.334 268.39 221.487 268.406 186.502 268.423C180.146 268.422 173.828 268.422 167.551 268.421C165.982 268.421 164.415 268.42 162.851 268.42C162.054 268.412 161.322 268.437 160.473 268.402C159.612 268.386 158.758 268.268 157.915 268.103C154.538 267.4 151.502 265.357 149.53 262.578C148.539 261.19 147.809 259.62 147.387 257.974C146.941 256.353 146.909 254.531 146.935 253.071C146.937 249.999 146.938 246.939 146.94 243.892C146.944 237.797 146.948 231.751 146.951 225.757C146.977 201.785 147.003 178.662 147.027 156.635C147.031 153.882 147.035 151.145 147.04 148.427C147.046 147.044 147.144 145.477 147.591 144.083C148.008 142.666 148.643 141.321 149.465 140.106C151.143 137.71 153.543 135.821 156.291 134.899C157.656 134.441 159.086 134.135 160.521 134.134C161.889 134.105 163.159 134.13 164.475 134.126C174.91 134.148 185.04 134.17 194.835 134.191C214.424 134.248 232.67 134.301 249.328 134.35C282.639 134.525 309.596 134.666 328.233 134.764C337.544 134.87 344.775 134.952 349.686 135.008C352.133 135.065 354.001 135.108 355.265 135.137C356.517 135.181 357.161 135.225 357.161 135.27C357.161 135.315 356.517 135.359 355.26 135.403C353.996 135.432 352.129 135.475 349.681 135.532C344.77 135.588 337.539 135.67 328.228 135.776C309.591 135.874 282.634 136.015 249.323 136.19C232.665 136.239 214.418 136.292 194.83 136.349C185.035 136.37 174.905 136.392 164.47 136.414C163.178 136.423 161.829 136.404 160.571 136.436C159.372 136.437 158.188 136.703 157.055 137.085C154.775 137.854 152.788 139.44 151.398 141.431C150.032 143.472 149.327 145.855 149.411 148.425C149.415 151.144 149.419 153.88 149.424 156.633C149.448 178.66 149.474 201.783 149.5 225.755C149.504 231.748 149.508 237.794 149.511 243.89C149.513 246.938 149.514 249.998 149.516 253.069C149.496 254.674 149.529 255.962 149.89 257.327C150.234 258.665 150.828 259.94 151.635 261.07C153.244 263.332 155.716 264.997 158.458 265.563C159.144 265.694 159.838 265.792 160.541 265.803C161.251 265.836 162.083 265.812 162.85 265.819C164.414 265.819 165.981 265.818 167.55 265.818C173.827 265.817 180.145 265.817 186.501 265.816C221.486 265.833 255.333 265.85 286.72 265.865H287.172L287.518 266.152C304.578 280.289 320.978 293.878 336.317 306.589L334.415 307.378C335.765 293.341 337.065 279.82 338.296 267.016L338.391 266.034L339.374 266.035C345.561 266.044 351.615 266.053 357.527 266.061C360.256 266.023 362.882 264.915 364.87 263.159C366.882 261.412 368.206 258.968 368.627 256.41C368.755 255.772 368.77 255.124 368.806 254.477C368.808 253.778 368.81 253.08 368.813 252.386C368.817 250.997 368.822 249.617 368.826 248.246C368.835 245.505 368.844 242.802 368.853 240.139C368.872 234.812 368.891 229.641 368.909 224.634C369.008 204.608 369.094 187.203 369.164 172.894C369.218 165.742 369.266 159.363 369.308 153.818C369.321 152.432 369.333 151.098 369.345 149.817C369.352 149.177 369.358 148.55 369.364 147.936C369.326 147.342 369.36 146.758 369.252 146.198C368.976 143.935 368.082 141.995 366.979 140.505C365.881 139.002 364.589 137.928 363.372 137.195C362.146 136.475 361.019 136.015 360.075 135.788C358.19 135.312 357.155 135.367 357.161 135.27Z" fill="#407BFF"/>
<path d="M274.425 331.322H79.654C72.256 331.322 66.259 325.325 66.259 317.927V212.867C66.259 205.469 72.256 199.472 79.654 199.472H274.425C281.823 199.472 287.82 205.469 287.82 212.867V317.927C287.82 325.325 281.823 331.322 274.425 331.322Z" fill="#407BFF"/>
<path d="M201.043 327.112L253.427 373.629L257.726 327.936" fill="#407BFF"/>
<path d="M135.322 280.166C142.447 280.166 148.223 274.39 148.223 267.265C148.223 260.14 142.447 254.364 135.322 254.364C128.197 254.364 122.421 260.14 122.421 267.265C122.421 274.39 128.197 280.166 135.322 280.166Z" fill="white"/>
<path d="M179.723 280.166C186.848 280.166 192.624 274.39 192.624 267.265C192.624 260.14 186.848 254.364 179.723 254.364C172.598 254.364 166.822 260.14 166.822 267.265C166.822 274.39 172.598 280.166 179.723 280.166Z" fill="white"/>
<path d="M224.123 280.166C231.248 280.166 237.024 274.39 237.024 267.265C237.024 260.14 231.248 254.364 224.123 254.364C216.998 254.364 211.222 260.14 211.222 267.265C211.222 274.39 216.998 280.166 224.123 280.166Z" fill="white"/>
<g opacity="0.3">
<path d="M279.563 200.045L258.737 199.432L97.715 199.473C111.097 212.776 130.225 219.905 149.024 221.542C167.823 223.179 186.7 220.319 205.293 217.099C223.886 213.879 242.554 210.277 261.423 210.417C265.407 210.446 269.526 210.621 273.227 209.145C276.929 207.669 280.106 203.992 279.563 200.045Z" fill="black"/>
</g>
<path d="M315.7 214.917C322.825 214.917 328.601 209.141 328.601 202.016C328.601 194.891 322.825 189.115 315.7 189.115C308.575 189.115 302.799 194.891 302.799 202.016C302.799 209.141 308.575 214.917 315.7 214.917Z" fill="#407BFF"/>
<path d="M204.534 12.3409C194.178 12.2719 184.226 19.7299 181.384 29.6879C179.919 34.8199 180.208 40.2819 179.275 45.5359C178.342 50.7899 175.683 56.3029 170.694 58.1959C167.444 59.4289 163.723 58.9179 160.494 60.2059C157.494 61.4039 155.186 64.1959 154.573 67.3669C153.961 70.5389 155.064 73.9889 157.403 76.2179C153.494 79.5939 152.414 85.8159 154.955 90.3119C157.496 94.8079 163.385 97.0909 168.293 95.4829C166.441 98.4269 167.049 102.503 169.219 105.221C171.39 107.939 174.843 109.406 178.298 109.799C181.754 110.193 185.245 109.618 188.641 108.867C196.215 107.192 203.823 104.491 209.519 99.2249C215.773 93.4429 219.082 85.1879 221.587 77.0479C226.374 61.4959 228.923 44.7509 225.009 28.9569" fill="#263238"/>
<path d="M169.677 99.0249L161.252 117.455L142.798 76.7659C141.925 73.4799 140.953 69.7669 140.754 69.0269C140.449 67.8939 140.35 66.7149 140.442 65.5449C140.553 64.1259 140.778 62.2469 141.221 61.2569C141.769 60.0309 140.542 58.7779 139.483 59.3819C138.424 59.9859 136.833 63.3269 136.881 67.6489C136.93 71.9709 122.061 61.7179 119.646 64.1449L121.448 78.4429C123.082 79.9339 127.683 84.0399 130.236 86.3159L147.637 129.615C149.27 134.065 152.926 137.469 157.481 138.781C164.089 140.684 171.139 137.808 174.531 131.826L185.737 112.059L169.677 99.0249Z" fill="#FFBE9D"/>
<path d="M130.589 51.0389C130.88 50.9239 131.197 51.0969 131.31 51.4339L140.878 79.8379C141.061 80.3669 140.862 80.9719 140.424 81.2169L129.055 87.5949C128.586 87.8579 128.025 87.6099 127.82 87.0479L117.061 57.6029C116.85 57.0259 117.101 56.3609 117.606 56.1579L130.589 51.0389Z" fill="#263238"/>
<path d="M130.899 53.0889L139.7 78.4339L128.448 84.4269L118.777 57.9039L130.899 53.0889Z" fill="#F5F5F5"/>
<path d="M120.931 59.6249C121.273 60.4889 121.834 61.8899 122.182 62.7589C122.353 63.1859 122.84 63.3879 123.265 63.2099L129.238 60.6989L131.305 61.0039L130.726 59.9059L131.407 59.6329C131.836 59.4609 132.04 58.9689 131.858 58.5439L130.637 55.6949C130.46 55.2829 129.987 55.0879 129.571 55.2559L121.39 58.5589C120.969 58.7279 120.765 59.2039 120.931 59.6249Z" fill="#E0E0E0"/>
<path d="M126.037 74.5959C126.379 75.4599 126.94 76.8609 127.288 77.7299C127.459 78.1569 127.947 78.3589 128.371 78.1809L134.344 75.6699L136.411 75.9749L135.832 74.8769L136.513 74.6039C136.942 74.4319 137.146 73.9399 136.963 73.5149L135.742 70.6659C135.565 70.2539 135.092 70.0589 134.676 70.2269L126.495 73.5299C126.075 73.6989 125.87 74.1749 126.037 74.5959Z" fill="#E0E0E0"/>
<path d="M132.961 63.1639C133.337 64.0139 133.943 65.3959 134.319 66.2539C134.504 66.6759 134.306 67.1649 133.881 67.3419L127.903 69.8399L126.671 71.5279L126.295 70.3449L125.623 70.6389C125.199 70.8239 124.706 70.6249 124.531 70.1959L123.356 67.3269C123.186 66.9119 123.379 66.4379 123.79 66.2589L131.881 62.7419C132.295 62.5619 132.778 62.7499 132.961 63.1639Z" fill="#E0E0E0"/>
<path d="M119.646 64.8519C121.582 65.1699 123.947 65.3619 125.883 65.6799C126.431 65.7699 127.003 65.8699 127.448 66.2029C127.893 66.5359 128.159 67.1799 127.887 67.6649C127.578 68.2179 126.815 68.2659 126.182 68.2449C124.758 68.1989 123.184 68.4999 121.76 68.4539C123.576 68.6089 125.259 68.7589 127.288 69.0049C128.13 69.1069 128.985 69.8109 129.002 70.6579C129.016 71.3869 128.31 71.9699 127.588 72.0749C126.866 72.1799 125.345 72.1099 125.345 72.1099C125.345 72.1099 122.419 72.1519 122.292 72.5339C124.118 72.5209 126.532 72.9159 128.356 73.0789C128.855 73.1239 129.083 73.8059 129.203 74.2919C129.323 74.7779 129.135 75.3699 128.675 75.5689C128.451 75.6659 128.199 75.6599 127.956 75.6519C125.595 75.5789 124.36 75.7289 121.998 75.6559" fill="#FFBE9D"/>
<path d="M163.538 130.589C163.368 130.571 164.045 127.475 163.303 123.736C162.608 119.987 160.835 117.362 160.986 117.282C161.036 117.247 161.544 117.851 162.157 118.966C162.771 120.077 163.445 121.724 163.815 123.638C164.179 125.552 164.163 127.331 164.003 128.591C163.846 129.854 163.597 130.603 163.538 130.589Z" fill="#EB996E"/>
<path d="M128.801 73.3409C128.784 73.4839 126.933 73.3849 124.667 73.1199C123.536 73.0109 122.498 72.7799 121.806 72.7819C121.091 72.7749 120.782 73.1389 120.723 73.0899C120.698 73.0719 120.733 72.9459 120.899 72.7849C121.062 72.6229 121.378 72.4679 121.774 72.4149C122.581 72.3179 123.588 72.4949 124.726 72.6029C126.994 72.8679 128.818 73.1989 128.801 73.3409Z" fill="#EB996E"/>
<path d="M128.145 69.1909C128.128 69.3339 126.299 69.2379 124.06 68.9759C122.944 68.8739 121.912 68.6279 121.241 68.6509C120.546 68.6719 120.246 69.0569 120.185 69.0009C120.116 68.9929 120.366 68.4259 121.197 68.2859C121.59 68.2089 122.063 68.2499 122.539 68.2949C123.068 68.3499 123.582 68.4029 124.12 68.4589C126.36 68.7199 128.162 69.0479 128.145 69.1909Z" fill="#EB996E"/>
<path d="M185.211 154.855C185.211 154.855 124.35 150.262 106.742 164.042C89.134 177.822 97.555 200.023 97.555 200.023H197.077L200.905 154.12L185.211 154.855Z" fill="#263238"/>
<path d="M196.658 186.474C196.656 186.492 196.35 186.469 195.77 186.408C195.19 186.344 194.334 186.256 193.236 186.11C191.037 185.833 187.862 185.38 183.954 184.718C176.14 183.404 165.402 181.151 153.793 177.741C147.992 176.025 142.505 174.289 137.429 173.035C132.353 171.805 127.697 171.011 123.751 170.859C119.81 170.689 116.607 170.976 114.44 171.398C113.342 171.539 112.523 171.812 111.949 171.912C111.38 172.037 111.078 172.094 111.073 172.077C111.068 172.06 111.36 171.969 111.922 171.811C112.489 171.678 113.305 171.372 114.402 171.2C116.569 170.714 119.792 170.369 123.766 170.493C127.744 170.599 132.438 171.361 137.542 172.571C142.645 173.804 148.148 175.531 153.939 177.243C165.526 180.647 176.229 182.953 184.017 184.357C187.911 185.065 191.075 185.572 193.263 185.911C194.322 186.077 195.162 186.208 195.783 186.305C196.359 186.398 196.66 186.456 196.658 186.474Z" fill="#455A64"/>
<path d="M139.216 172.762C139.1 172.884 137.032 170.634 133.748 168.936C130.481 167.202 127.455 166.782 127.49 166.618C127.498 166.556 128.262 166.578 129.47 166.83C130.676 167.08 132.316 167.6 133.99 168.475C135.661 169.354 137.023 170.406 137.914 171.255C138.809 172.104 139.262 172.72 139.216 172.762Z" fill="#455A64"/>
<path d="M229.264 149.126C229.264 149.126 173.589 150.64 155.982 164.42C138.374 178.2 146.795 200.401 146.795 200.401L251.196 202.016V188.554L237.659 187.085L237.559 186.474C242.815 180.719 238.814 160.684 230.074 150.106L229.264 149.126Z" fill="#263238"/>
<path d="M244.89 187.95C244.888 187.968 244.582 187.945 244.002 187.884C243.422 187.82 242.566 187.732 241.468 187.586C239.269 187.309 236.094 186.856 232.186 186.194C224.372 184.88 213.634 182.627 202.025 179.217C196.224 177.501 190.737 175.765 185.661 174.511C180.585 173.282 175.929 172.487 171.983 172.335C168.042 172.165 164.839 172.452 162.672 172.874C161.574 173.015 160.755 173.288 160.181 173.388C159.612 173.513 159.31 173.57 159.305 173.553C159.3 173.536 159.592 173.445 160.154 173.287C160.721 173.154 161.537 172.848 162.635 172.675C164.802 172.19 168.025 171.844 171.999 171.968C175.977 172.074 180.671 172.836 185.775 174.046C190.878 175.279 196.381 177.006 202.172 178.718C213.759 182.122 224.462 184.428 232.251 185.832C236.145 186.539 239.309 187.047 241.497 187.386C242.556 187.552 243.396 187.683 244.017 187.78C244.591 187.874 244.892 187.932 244.89 187.95Z" fill="#455A64"/>
<path d="M187.448 174.238C187.333 174.36 185.264 172.11 181.98 170.412C178.713 168.678 175.687 168.258 175.722 168.094C175.73 168.032 176.494 168.054 177.702 168.306C178.907 168.556 180.548 169.076 182.222 169.951C183.893 170.83 185.255 171.882 186.146 172.731C187.041 173.58 187.495 174.196 187.448 174.238Z" fill="#455A64"/>
<path d="M200.478 151.445C200.48 151.463 200.183 151.511 199.616 151.588C199.005 151.674 198.18 151.791 197.142 151.937C194.996 152.259 191.899 152.779 188.095 153.542C184.291 154.302 179.773 155.286 174.784 156.476C169.826 157.686 164.448 159.555 159.412 162.625C156.897 164.156 154.615 165.935 152.715 167.949C150.804 169.957 149.285 172.185 148.092 174.432C145.718 178.956 144.85 183.596 144.841 187.443C144.804 191.311 145.533 194.399 146.161 196.46C146.483 197.493 146.778 198.282 146.987 198.812C147.199 199.342 147.303 199.624 147.287 199.632C147.271 199.64 147.135 199.372 146.891 198.853C146.65 198.334 146.323 197.553 145.969 196.522C145.278 194.465 144.484 191.359 144.474 187.441C144.436 183.547 145.278 178.821 147.668 174.21C148.869 171.92 150.406 169.647 152.345 167.598C154.276 165.541 156.596 163.728 159.141 162.179C164.242 159.07 169.672 157.202 174.673 156.008C179.678 154.842 184.206 153.895 188.026 153.179C191.845 152.461 194.958 151.995 197.116 151.735C198.195 151.608 199.035 151.521 199.606 151.482C200.176 151.441 200.476 151.427 200.478 151.445Z" fill="#455A64"/>
<path d="M251.196 189.219L260.725 188.615L267.027 192.286L279.122 193.607C284.915 193.912 285.83 200.137 282.273 200.137C279.444 200.137 262.513 201.24 262.513 201.24L251.197 201.536L251.196 189.219Z" fill="#E0E0E0"/>
<path d="M266.67 192.307C266.699 192.358 266.186 192.732 265.205 192.987C264.239 193.245 262.772 193.315 261.307 192.751C259.843 192.184 258.804 191.146 258.262 190.305C257.708 189.457 257.579 188.835 257.635 188.817C257.712 188.784 257.961 189.342 258.559 190.088C259.148 190.831 260.148 191.744 261.494 192.265C262.84 192.784 264.195 192.781 265.13 192.627C266.076 192.477 266.635 192.23 266.67 192.307Z" fill="#455A64"/>
<path d="M281.784 200.019C281.799 200.079 281.3 200.204 280.618 199.847C279.927 199.515 279.268 198.594 279.022 197.513C278.725 196.439 278.869 195.335 279.268 194.697C279.653 194.043 280.11 193.851 280.138 193.906C280.189 193.969 279.85 194.251 279.598 194.861C279.331 195.463 279.259 196.393 279.527 197.385C279.764 198.387 280.268 199.17 280.812 199.534C281.344 199.916 281.789 199.938 281.784 200.019Z" fill="#455A64"/>
<path d="M188.034 73.368C188.034 73.368 176.165 99.458 176.864 103.889C177.564 108.32 180.989 125.984 180.989 125.984L183.499 154.741C183.499 154.741 228.33 149.305 229.263 149.305C230.196 149.305 227.864 125.518 227.864 125.518L234.69 79.797C234.69 79.797 231.559 73.57 217.442 71.413C208.958 70.117 188.034 73.368 188.034 73.368Z" fill="#407BFF"/>
<path d="M220.767 108.526C221.309 112.376 222.331 116.938 225.002 121.806C225.855 123.361 226.659 125.539 228.077 126.605C230.299 128.274 233.486 126.697 235.504 124.786C237.521 122.876 239.547 120.46 242.324 120.361C244.09 120.298 245.726 121.224 247.456 121.586C249.186 121.947 251.431 121.394 251.835 119.674C252.068 118.685 251.595 117.683 251.145 116.772C246.829 108.023 243.732 99.7559 241.466 90.2669C241.013 88.3709 238.917 84.4769 237.955 82.7819C236.992 81.0869 234.372 78.6399 231.828 76.5809" fill="#407BFF"/>
<path d="M196.456 71.636C184.125 72.074 174.871 80.225 172.238 86.11C169.152 93.009 166.748 101.353 163.13 107.989C162.419 109.293 161.572 110.563 161.263 112.016C160.954 113.469 161.343 115.204 162.622 115.96C164.479 117.058 167.177 115.631 168.891 116.94C169.834 117.661 170.111 118.97 170.917 119.84C171.908 120.909 173.489 121.13 174.938 121.287C177.716 121.587 180.494 121.888 183.271 122.188" fill="#407BFF"/>
<path d="M218.034 97.095C218.007 97.107 217.815 96.765 217.554 96.105C217.291 95.447 216.995 94.455 216.812 93.195C216.428 90.705 216.699 86.979 218.717 83.586C220.749 80.199 223.902 78.195 226.277 77.353C227.474 76.917 228.487 76.707 229.191 76.627C229.895 76.544 230.288 76.551 230.29 76.581C230.308 76.688 228.721 76.755 226.411 77.696C224.126 78.606 221.12 80.594 219.165 83.853C217.222 87.118 216.896 90.707 217.178 93.151C217.444 95.631 218.137 97.06 218.034 97.095Z" fill="#263238"/>
<path d="M184.106 86.8779C184.137 86.8969 183.907 87.3609 183.467 88.1799C183.242 88.5869 182.973 89.0869 182.698 89.6879C182.418 90.2859 182.065 90.9489 181.762 91.7219C181.09 93.2389 180.422 95.1009 179.811 97.2039C179.234 99.3169 178.734 101.677 178.438 104.188C178.166 106.703 178.126 109.116 178.217 111.305C178.342 113.492 178.578 115.456 178.894 117.085C179.017 117.907 179.213 118.632 179.352 119.277C179.485 119.924 179.635 120.472 179.764 120.919C180.01 121.816 180.13 122.319 180.096 122.331C180.062 122.343 179.877 121.861 179.57 120.978C179.41 120.538 179.231 119.995 179.07 119.35C178.903 118.707 178.68 117.982 178.532 117.157C178.167 115.523 177.89 113.543 177.737 111.332C177.619 109.12 177.644 106.676 177.92 104.13C178.22 101.588 178.74 99.2009 179.35 97.0709C179.993 94.9509 180.705 93.0819 181.426 91.5709C181.754 90.8009 182.133 90.1429 182.44 89.5539C182.741 88.9619 183.038 88.4719 183.291 88.0789C183.787 87.2869 184.075 86.8589 184.106 86.8779Z" fill="#263238"/>
<path d="M251.105 116.14C251.121 116.148 251.087 116.246 251.003 116.432C250.899 116.603 250.739 116.87 250.428 117.111C249.828 117.616 248.673 117.983 247.293 117.815C245.896 117.659 244.444 116.851 242.755 116.522C241.056 116.144 239.182 116.919 237.63 118.183C236.059 119.437 234.78 120.968 233.273 121.997C232.53 122.512 231.746 122.934 230.929 123.11C230.126 123.276 229.368 123.293 228.684 123.245C227.315 123.146 226.238 122.751 225.6 122.315C225.283 122.093 225.07 121.875 224.953 121.71C224.84 121.54 224.791 121.448 224.806 121.439C224.848 121.407 225.069 121.777 225.707 122.143C226.342 122.504 227.386 122.829 228.704 122.877C229.36 122.901 230.088 122.862 230.831 122.689C231.563 122.515 232.289 122.11 232.995 121.605C234.425 120.602 235.673 119.084 237.307 117.774C238.126 117.129 239.013 116.577 239.968 116.251C240.916 115.916 241.941 115.858 242.843 116.05C244.643 116.437 246.047 117.268 247.343 117.45C248.636 117.652 249.72 117.365 250.308 116.949C250.908 116.531 251.057 116.109 251.105 116.14Z" fill="#FAFAFA"/>
<path d="M248.239 110.286C248.254 110.291 248.241 110.389 248.174 110.567C248.103 110.742 247.955 110.992 247.678 111.234C247.137 111.72 246.043 112.102 244.755 111.844C243.482 111.626 242.155 110.792 240.575 110.714C238.985 110.631 237.268 111.316 235.72 112.352C234.163 113.396 232.823 114.644 231.432 115.577C230.062 116.535 228.605 117.135 227.329 117.278C226.053 117.441 224.998 117.204 224.357 116.893C223.709 116.584 223.437 116.286 223.453 116.269C223.481 116.229 223.793 116.467 224.434 116.705C225.07 116.945 226.071 117.112 227.276 116.913C228.486 116.728 229.836 116.136 231.159 115.182C232.5 114.253 233.821 113.001 235.432 111.918C237.03 110.848 238.86 110.118 240.6 110.235C241.469 110.277 242.245 110.563 242.929 110.825C243.616 111.093 244.241 111.346 244.831 111.484C246.001 111.766 247.025 111.47 247.55 111.076C248.095 110.673 248.189 110.259 248.239 110.286Z" fill="#FAFAFA"/>
<path d="M178.183 117.893C178.201 117.908 177.998 118.156 177.465 118.278C176.945 118.394 176.098 118.303 175.321 117.703C174.54 117.109 173.995 116.082 173.458 115.018C172.923 113.976 172.205 112.789 170.916 112.471C169.637 112.141 168.326 112.47 167.135 112.668C165.941 112.878 164.759 112.925 163.857 112.521C162.967 112.135 162.444 111.477 162.268 110.973C162.08 110.462 162.176 110.156 162.195 110.162C162.246 110.158 162.227 110.455 162.454 110.892C162.667 111.323 163.177 111.873 163.995 112.18C164.803 112.495 165.886 112.428 167.051 112.196C168.212 111.984 169.585 111.597 171.052 111.969C171.78 112.156 172.42 112.609 172.859 113.142C173.306 113.675 173.614 114.255 173.885 114.801C174.405 115.894 174.884 116.855 175.553 117.418C176.21 117.983 176.959 118.124 177.433 118.078C177.921 118.029 178.159 117.852 178.183 117.893Z" fill="#FAFAFA"/>
<path d="M176.667 112.012C176.674 112.038 176.453 112.127 176.066 112.01C175.681 111.897 175.204 111.531 174.823 110.951C174.439 110.398 174.14 109.618 173.475 109.206C172.81 108.777 171.849 108.87 170.864 109.025C169.874 109.204 168.819 109.245 167.94 109.012C167.051 108.805 166.309 108.429 165.754 108.034C164.632 107.233 164.25 106.44 164.294 106.421C164.366 106.36 164.848 107.052 165.955 107.726C167.048 108.412 168.816 108.948 170.788 108.509C171.765 108.359 172.882 108.231 173.734 108.801C174.568 109.38 174.803 110.223 175.136 110.757C175.448 111.311 175.831 111.669 176.141 111.821C176.453 111.978 176.667 111.968 176.667 112.012Z" fill="#FAFAFA"/>
<path d="M223.661 117.166C223.65 117.203 223.027 117.045 221.897 116.778C220.767 116.515 219.131 116.13 217.092 115.754C216.073 115.565 214.954 115.375 213.748 115.231C212.546 115.099 211.24 114.953 209.91 115.078C208.584 115.214 207.242 115.731 205.921 116.385C204.597 117.046 203.273 117.853 201.833 118.558C200.398 119.26 198.862 119.786 197.321 119.864C195.786 119.953 194.323 119.705 192.98 119.383C190.292 118.717 187.972 117.86 185.917 117.667C183.873 117.413 182.198 117.698 181.134 118.118C180.069 118.548 179.58 118.989 179.547 118.942C179.536 118.928 179.654 118.82 179.894 118.624C180.136 118.433 180.522 118.184 181.056 117.932C182.126 117.44 183.857 117.088 185.955 117.301C188.066 117.453 190.444 118.289 193.09 118.916C194.415 119.221 195.833 119.447 197.29 119.355C198.748 119.274 200.2 118.776 201.606 118.089C203.015 117.401 204.341 116.596 205.695 115.928C207.049 115.266 208.445 114.733 209.864 114.6C211.276 114.483 212.585 114.651 213.804 114.802C215.022 114.967 216.144 115.179 217.164 115.392C219.204 115.816 220.832 116.256 221.95 116.581C222.509 116.744 222.939 116.882 223.229 116.984C223.517 117.087 223.666 117.149 223.661 117.166Z" fill="#FAFAFA"/>
<path d="M224.686 122.189C224.668 122.224 224.09 121.95 223.026 121.503C221.96 121.062 220.412 120.427 218.445 119.826C217.463 119.53 216.37 119.236 215.187 119.095C214.011 118.971 212.736 119.139 211.47 119.578C208.918 120.448 206.501 122.326 203.506 123.5C202.006 124.089 200.412 124.322 198.904 124.303C197.391 124.288 195.953 124.078 194.603 123.837C191.906 123.329 189.513 122.797 187.458 122.735C185.409 122.638 183.758 122.951 182.686 123.344C181.609 123.734 181.076 124.101 181.049 124.056C181.039 124.041 181.167 123.945 181.422 123.773C181.677 123.604 182.073 123.377 182.614 123.155C183.687 122.694 185.379 122.315 187.47 122.367C189.565 122.383 192.009 122.887 194.685 123.364C197.342 123.813 200.417 124.172 203.322 123.012C206.214 121.886 208.657 120.009 211.316 119.123C212.637 118.678 213.996 118.514 215.238 118.666C216.47 118.832 217.569 119.153 218.557 119.475C220.532 120.129 222.065 120.819 223.111 121.319C223.632 121.573 224.031 121.783 224.297 121.934C224.56 122.085 224.694 122.173 224.686 122.189Z" fill="#FAFAFA"/>
<path d="M211.331 120.404C211.334 120.44 211.077 120.48 210.605 120.522C210.135 120.576 209.445 120.565 208.603 120.471C207.757 120.386 206.766 120.154 205.703 119.784C204.65 119.389 203.532 118.84 202.459 118.105C201.395 117.355 200.49 116.499 199.753 115.65C199.035 114.783 198.472 113.935 198.097 113.172C197.715 112.415 197.464 111.773 197.351 111.313C197.226 110.857 197.174 110.602 197.209 110.592C197.303 110.562 197.595 111.564 198.42 112.995C198.824 113.715 199.402 114.514 200.115 115.335C200.848 116.138 201.73 116.953 202.756 117.677C203.793 118.386 204.864 118.928 205.872 119.334C206.89 119.716 207.84 119.978 208.656 120.105C210.285 120.381 211.326 120.305 211.331 120.404Z" fill="#263238"/>
<g opacity="0.3">
<path d="M197.248 111.667C197.927 115.387 199.352 119.1 202.064 121.735C204.776 124.37 208.958 125.703 212.48 124.326C213.22 124.037 213.986 123.549 214.16 122.774C214.361 121.878 213.645 120.99 212.799 120.634C211.952 120.278 211.002 120.305 210.085 120.255C204.852 119.968 199.877 116.747 197.471 112.091" fill="black"/>
</g>
<path d="M226.569 126.507C226.535 126.519 226.382 126.176 226.135 125.546C225.887 124.916 225.55 123.997 225.151 122.856C224.352 120.574 223.316 117.396 222.28 113.854C221.245 110.31 220.408 107.075 219.852 104.721C219.574 103.544 219.363 102.589 219.233 101.924C219.102 101.26 219.046 100.889 219.081 100.881C219.116 100.873 219.238 101.227 219.43 101.876C219.645 102.637 219.905 103.555 220.209 104.629C220.855 106.957 221.747 110.171 222.78 113.708C223.814 117.244 224.792 120.432 225.501 122.741C225.823 123.81 226.099 124.723 226.327 125.481C226.515 126.13 226.603 126.495 226.569 126.507Z" fill="#263238"/>
<path d="M181.425 155.135C181.425 155.135 190.072 145.878 197.627 144.057C205.182 142.236 232.272 132.675 232.272 132.675L230.563 127.285C232.286 127.177 233.887 126.222 235.109 125.003L236.86 123.257C239.241 120.662 242.106 119.23 246.271 120.668L248.886 121.453L251.624 129.434C254.313 137.38 249.102 145.809 240.792 146.954L181.425 155.135Z" fill="#FFBE9D"/>
<path d="M243.504 133.824C243.438 133.975 241.136 132.802 238.033 132.495C234.934 132.151 232.438 132.822 232.405 132.66C232.345 132.549 234.868 131.624 238.087 131.977C241.31 132.3 243.585 133.729 243.504 133.824Z" fill="#EB996E"/>
<path d="M182.728 28.561C181.946 16.027 198.363 7.17795 209.526 10.331C220.016 13.294 224.49 18.514 226.216 25.53C227.943 32.549 227.86 40.151 225.109 46.836C223.753 50.132 221.31 53.481 217.769 53.893" fill="#263238"/>
<path d="M216.215 20.8469C218.055 21.0419 219.441 22.6119 219.404 24.4629L217.384 72.6099C217.308 78.2959 209.003 81.5089 202.916 81.3809C196.768 81.2509 196.563 78.2369 196.475 72.8279C196.326 63.7909 196.33 60.3989 196.326 60.4499C196.326 60.4499 188.558 59.1599 186.948 49.0249C186.148 43.9849 186.401 35.7199 186.826 28.9649C187.209 22.8849 191.238 15.4239 197.296 16.0649L216.215 20.8469Z" fill="#FFBE9D"/>
<path d="M189.46 35.5259C189.436 36.2119 189.997 36.7989 190.713 36.8369C191.428 36.8749 192.029 36.3519 192.053 35.6649C192.077 34.9789 191.516 34.3909 190.801 34.3529C190.085 34.3149 189.484 34.8399 189.46 35.5259Z" fill="#263238"/>
<path d="M188.62 33.2648C188.781 33.4338 189.766 32.7058 191.165 32.7088C192.562 32.6928 193.589 33.4118 193.741 33.2408C193.816 33.1648 193.651 32.8588 193.204 32.5338C192.764 32.2098 192.014 31.8948 191.142 31.8988C190.271 31.9038 189.538 32.2248 189.117 32.5528C188.686 32.8818 188.541 33.1888 188.62 33.2648Z" fill="#263238"/>
<path d="M203.134 35.5259C203.11 36.2119 203.671 36.7989 204.387 36.8369C205.102 36.8749 205.703 36.3519 205.727 35.6649C205.751 34.9789 205.19 34.3909 204.475 34.3529C203.759 34.3149 203.158 34.8399 203.134 35.5259Z" fill="#263238"/>
<path d="M202.369 33.5259C202.53 33.6959 203.516 32.9669 204.914 32.9709C206.311 32.9539 207.338 33.6739 207.49 33.5029C207.564 33.4269 207.402 33.1209 206.953 32.7959C206.513 32.4719 205.763 32.1569 204.891 32.1599C204.02 32.1649 203.287 32.4859 202.865 32.8139C202.436 33.1429 202.29 33.4499 202.369 33.5259Z" fill="#263238"/>
<path d="M197.293 43.8989C197.3 43.8189 196.43 43.6689 195.021 43.4889C194.664 43.4519 194.326 43.3809 194.265 43.1379C194.181 42.8799 194.33 42.4949 194.504 42.0789C194.84 41.2149 195.191 40.3089 195.56 39.3589C197.027 35.4869 198.089 32.3029 197.932 32.2449C197.776 32.1869 196.459 35.2789 194.993 39.1509C194.64 40.1059 194.302 41.0159 193.981 41.8869C193.846 42.2929 193.613 42.7529 193.796 43.2889C193.892 43.5559 194.154 43.7489 194.383 43.8109C194.612 43.8809 194.813 43.8849 194.99 43.8949C196.408 43.9719 197.287 43.9779 197.293 43.8989Z" fill="#263238"/>
<path d="M196.326 60.4499C196.326 60.4499 203.144 60.8899 209.9 56.8289C209.9 56.8289 206.607 63.7909 196.463 62.8429L196.326 60.4499Z" fill="#EB996E"/>
<path d="M197.884 47.2699C198.387 46.6049 199.268 46.2399 200.143 46.3339C200.75 46.3989 201.363 46.6919 201.732 47.1859C202.101 47.6799 202.178 48.3819 201.843 48.8529C201.465 49.3839 200.677 49.506 200.009 49.317C199.341 49.127 198.767 48.6879 198.221 48.2499C198.07 48.1289 197.916 48.0019 197.822 47.8359C197.728 47.6699 197.708 47.453 197.824 47.315" fill="#EB996E"/>
<path d="M201.409 44.8659C201.182 44.8529 201.179 46.3709 199.879 47.4489C198.582 48.5299 196.963 48.3599 196.952 48.5719C196.931 48.6669 197.312 48.8669 197.995 48.8849C198.665 48.9079 199.643 48.6929 200.439 48.0329C201.232 47.3719 201.573 46.4899 201.624 45.8679C201.682 45.2329 201.513 44.8569 201.409 44.8659Z" fill="#263238"/>
<path d="M201.74 31.0769C201.878 31.4569 203.275 31.2769 204.915 31.4749C206.56 31.6399 207.883 32.1199 208.101 31.7789C208.198 31.6159 207.968 31.2579 207.432 30.8899C206.902 30.5219 206.055 30.1729 205.07 30.0629C204.085 29.9549 203.183 30.1119 202.585 30.3549C201.983 30.5969 201.68 30.8959 201.74 31.0769Z" fill="#263238"/>
<path d="M189.134 29.2159C189.38 29.5329 190.344 29.2039 191.502 29.1879C192.66 29.1319 193.642 29.4009 193.868 29.0689C193.967 28.9079 193.812 28.5899 193.384 28.2889C192.961 27.9889 192.255 27.7439 191.459 27.7679C190.663 27.7929 189.973 28.0809 189.57 28.4069C189.16 28.7339 189.026 29.0619 189.134 29.2159Z" fill="#263238"/>
<path d="M202.348 12.6899C198.654 12.8129 195.853 13.9359 192.61 15.7099C189.368 17.4839 186.657 20.4109 185.659 23.9699C185.447 24.7249 185.327 25.5859 185.74 26.2529C186.286 27.1329 187.576 27.2789 188.52 26.8519C189.464 26.4249 190.141 25.5809 190.781 24.7669C191.26 26.6269 193.105 28.0399 195.025 28.0179C196.946 27.9969 198.758 26.5429 199.196 24.6729C199.211 26.6189 201.158 28.2279 203.103 28.1579C205.048 28.0879 206.769 26.5879 207.417 24.7529C207.778 26.4819 208.164 28.2689 209.2 29.7009C210.235 31.1329 212.109 32.1179 213.789 31.5699C213.551 33.0809 213.319 34.6709 213.855 36.1029C214.391 37.5349 216.878 68.5589 218.324 68.0619C219.728 67.5789 219.377 36.0519 219.705 34.6039C220.338 31.8119 220.88 28.9709 220.791 26.1089C220.702 23.2479 219.936 20.3379 218.182 18.0759C216.367 15.7359 213.617 14.2519 210.753 13.4959C207.889 12.7399 204.894 12.6559 201.932 12.6929" fill="#263238"/>
<path d="M167.074 52.834C167.044 52.853 166.958 52.647 166.67 52.365C166.392 52.082 165.888 51.727 165.14 51.587C164.411 51.455 163.404 51.524 162.553 52.163C161.706 52.791 161.207 54.056 161.387 55.379C161.476 56.039 161.723 56.714 162.151 57.295C162.587 57.868 163.193 58.358 163.911 58.675C165.344 59.333 167.163 59.346 168.803 58.643C170.454 57.95 171.926 56.667 173.11 55.1C174.298 53.531 175.229 51.684 175.877 49.686C177.197 45.682 177.558 41.628 178.113 37.993C178.647 34.343 179.49 31.084 180.671 28.534C181.818 25.964 183.347 24.2 184.528 23.181C185.14 22.69 185.627 22.326 185.992 22.132C186.346 21.921 186.535 21.819 186.544 21.834C186.58 21.889 185.811 22.298 184.663 23.332C183.542 24.382 182.092 26.139 181.007 28.684C179.889 31.209 179.093 34.433 178.588 38.06C178.06 41.684 177.717 45.763 176.372 49.849C175.711 51.887 174.751 53.79 173.515 55.408C172.288 57.021 170.746 58.36 168.987 59.083C167.238 59.819 165.27 59.795 163.731 59.064C162.956 58.71 162.3 58.17 161.827 57.529C161.362 56.878 161.106 56.139 161.022 55.421C160.85 53.982 161.419 52.602 162.379 51.927C163.339 51.246 164.414 51.217 165.181 51.386C165.969 51.566 166.482 51.972 166.747 52.291C167.022 52.612 167.074 52.834 167.074 52.834Z" fill="#263238"/>
<path d="M220.827 69.4459C220.8 69.3919 221.419 69.1319 222.396 68.4449C223.371 67.7639 224.668 66.5849 225.834 64.8039C226.99 63.0249 227.98 60.6359 228.4 57.8559C228.826 55.0759 228.623 51.9409 228.011 48.7429C227.39 45.5369 226.475 42.5489 225.679 39.8179C224.877 37.0889 224.214 34.6029 223.814 32.4799C223.413 30.3569 223.257 28.6089 223.235 27.4019C223.226 26.7979 223.231 26.3299 223.255 26.0119C223.273 25.6949 223.291 25.5289 223.309 25.5289C223.356 25.5299 223.35 26.1959 223.437 27.3909C223.521 28.5869 223.731 30.3099 224.175 32.4059C224.618 34.5029 225.312 36.9609 226.139 39.6809C226.958 42.4009 227.893 45.3999 228.522 48.6439C229.141 51.8829 229.336 55.0789 228.873 57.9279C228.416 60.7749 227.365 63.2099 226.14 65.0059C224.905 66.8059 223.536 67.9709 222.509 68.6109C221.99 68.9269 221.579 69.1529 221.281 69.2709C220.99 69.4019 220.835 69.4619 220.827 69.4459Z" fill="#263238"/>
<path d="M222.638 62.942C222.645 62.959 222.523 63.018 222.282 63.117C222.04 63.213 221.668 63.318 221.176 63.39C220.199 63.516 218.687 63.4 217.105 62.54C215.518 61.709 214 60.018 213.188 57.799C212.338 55.59 212.159 52.949 212.403 50.282C212.643 47.604 213.13 45.114 213.35 42.824C213.594 40.536 213.701 38.463 213.741 36.722C213.783 34.98 213.757 33.57 213.739 32.594C213.721 31.618 213.707 31.078 213.746 31.075C213.778 31.072 213.86 31.608 213.941 32.583C214.022 33.558 214.104 34.973 214.109 36.725C214.116 38.476 214.047 40.564 213.827 42.871C213.631 45.183 213.157 47.691 212.921 50.325C212.682 52.952 212.846 55.501 213.637 57.631C214.396 59.771 215.794 61.383 217.285 62.218C218.772 63.078 220.207 63.247 221.156 63.187C222.116 63.111 222.622 62.891 222.638 62.942Z" fill="#263238"/>
<path d="M157.234 72.077C157.234 72.077 157.198 71.735 157.386 71.121C157.575 70.515 158.066 69.647 159.053 68.916C160.015 68.175 161.462 67.582 163.187 67.478C164.906 67.321 166.856 67.571 168.97 67.431C171.079 67.262 173.344 66.551 175.458 65.23C177.554 63.893 179.53 62.023 181.077 59.682C182.648 57.358 183.754 54.578 184.406 51.59C185.064 48.6 185.272 45.41 185.203 42.155C185.15 38.895 184.752 35.728 184.554 32.635C184.358 29.552 184.38 26.506 185.118 23.715C185.829 20.925 187.334 18.484 189.278 16.809C191.194 15.099 193.443 14.085 195.568 13.652C197.706 13.22 199.716 13.388 201.377 13.82C203.045 14.256 204.39 14.922 205.397 15.586C206.407 16.251 207.104 16.886 207.541 17.344C207.766 17.567 207.913 17.761 208.021 17.882C208.125 18.007 208.175 18.073 208.168 18.079C208.117 18.136 207.313 17.029 205.289 15.757C204.281 15.128 202.947 14.502 201.308 14.102C199.675 13.705 197.714 13.57 195.644 14.012C193.584 14.455 191.409 15.46 189.566 17.131C187.695 18.77 186.264 21.121 185.583 23.836C184.878 26.55 184.862 29.542 185.064 32.602C185.267 35.668 185.671 38.854 185.725 42.144C185.795 45.427 185.582 48.659 184.906 51.699C184.237 54.734 183.096 57.577 181.476 59.95C179.881 62.337 177.848 64.241 175.686 65.597C173.506 66.937 171.166 67.65 168.996 67.799C166.824 67.917 164.893 67.641 163.208 67.769C161.519 67.845 160.129 68.387 159.173 69.08C158.201 69.763 157.701 70.579 157.485 71.157C157.27 71.742 157.267 72.082 157.234 72.077Z" fill="#455A64"/>
<path d="M207.363 10.5559C207.398 10.5059 207.855 10.7319 208.391 11.3429C208.924 11.9419 209.497 12.9749 209.605 14.2319C209.711 15.4899 209.32 16.6049 208.897 17.2849C208.472 17.9779 208.06 18.2779 208.017 18.2339C207.956 18.1799 208.258 17.7999 208.572 17.1119C208.888 16.4319 209.182 15.4069 209.087 14.2749C208.99 13.1429 208.526 12.1829 208.101 11.5659C207.673 10.9429 207.311 10.6189 207.363 10.5559Z" fill="#455A64"/>
<path d="M227.333 36.4949C227.293 36.4999 227.217 36.0589 227.064 35.2669C226.914 34.4739 226.695 33.3279 226.393 31.9179C226.09 30.5089 225.708 28.8339 225.212 26.9969C224.957 26.0809 224.678 25.1229 224.333 24.1549C223.995 23.1779 223.548 22.2469 222.888 21.3809C221.61 19.6409 219.918 18.3469 218.184 17.6679C216.447 16.9759 214.705 16.9309 213.32 17.1979C211.923 17.4539 210.884 18.0039 210.224 18.4429C209.562 18.8889 209.246 19.2089 209.212 19.1749C209.199 19.1619 209.267 19.0729 209.411 18.9129C209.551 18.7499 209.783 18.5319 210.105 18.2789C210.746 17.7769 211.798 17.1519 213.246 16.8369C214.677 16.5099 216.517 16.5159 218.356 17.2199C220.191 17.9089 221.973 19.2559 223.307 21.0719C223.99 21.9619 224.481 22.9929 224.813 23.9829C225.16 24.9749 225.431 25.9459 225.676 26.8739C226.15 28.7319 226.496 30.4219 226.754 31.8469C227.011 33.2719 227.175 34.4329 227.264 35.2379C227.356 36.0409 227.364 36.4909 227.333 36.4949Z" fill="#455A64"/>
<path d="M208.404 18.6289C208.391 18.7039 207.136 18.4769 205.202 17.8549C204.233 17.5629 203.083 17.1949 201.781 17.0179C200.484 16.8299 199.023 16.9399 197.613 17.4789C196.205 18.0129 195.021 18.8939 194.187 19.8919C193.345 20.8899 192.84 21.9849 192.558 22.9349C191.995 24.8579 192.236 26.1419 192.132 26.1419C192.103 26.1459 192.015 25.8389 191.971 25.2639C191.93 24.6919 191.953 23.8449 192.203 22.8379C192.451 21.8349 192.944 20.6649 193.817 19.5879C194.682 18.5099 195.934 17.5599 197.428 16.9929C198.92 16.4199 200.495 16.3189 201.848 16.5439C203.206 16.7559 204.36 17.1699 205.317 17.5059C207.221 18.2159 208.415 18.5619 208.404 18.6289Z" fill="#455A64"/>
<path d="M409.723 357.705C410.608 354.638 412.504 351.672 415.436 350.409C418.486 349.095 422.018 349.843 425.139 350.977C428.26 352.111 431.325 353.628 434.64 353.833C437.955 354.038 441.696 352.465 442.688 349.296C443.621 346.317 441.825 343.14 439.575 340.975C434.849 336.426 427.748 334.497 421.37 336.028C414.992 337.559 409.541 342.502 407.395 348.7" fill="#263238"/>
<path d="M383.463 371.02C378.6 366.4 378.843 358.358 381.269 352.105C383.695 345.852 388.989 341.05 394.903 337.885C406.367 331.75 420.697 331.286 432.533 336.665C426.717 336.858 421.094 340.159 418.092 345.145C415.427 349.571 414.835 354.942 412.633 359.616C410.18 364.823 405.679 369.03 400.318 371.126C394.958 373.221 388.796 373.182 383.463 371.02Z" fill="#455A64"/>
<path d="M381.125 343.265C375.741 336.91 375.024 326.708 375.817 318.416C376.61 310.125 378.532 301.78 377.224 293.554C376.449 288.681 374.559 284.028 373.92 279.135C373.281 274.242 374.187 268.709 377.978 265.55C382.336 261.92 389.197 262.776 393.73 266.185C398.263 269.594 400.89 274.948 402.809 280.285C407.026 292.01 408.574 305.012 405.11 316.981C401.646 328.95 393.518 339.652 381.593 343.265" fill="#455A64"/>
<path d="M378.541 395.409C378.523 395.409 378.514 395.156 378.513 394.676C378.517 394.196 378.508 393.487 378.546 392.576C378.61 390.753 378.782 388.115 379.187 384.876C379.594 381.638 380.232 377.798 381.248 373.6C382.249 369.391 383.965 364.905 386.393 360.539C388.828 356.172 391.8 352.402 394.806 349.297C397.82 346.189 400.904 343.773 403.628 341.971C404.974 341.042 406.277 340.338 407.398 339.685C408.548 339.084 409.552 338.591 410.374 338.196C411.179 337.861 411.824 337.592 412.314 337.388C412.76 337.209 412.996 337.123 413.003 337.139C413.01 337.156 412.786 337.274 412.355 337.484C411.876 337.71 411.246 338.008 410.46 338.379C409.654 338.8 408.669 339.317 407.539 339.939C406.438 340.612 405.157 341.334 403.833 342.276C401.154 344.104 398.12 346.531 395.151 349.63C392.19 352.727 389.259 356.469 386.847 360.794C381.901 369.446 380.542 378.545 379.552 384.925C379.102 388.146 378.875 390.771 378.749 392.587C378.695 393.455 378.652 394.15 378.619 394.68C378.585 395.158 378.559 395.409 378.541 395.409Z" fill="#263238"/>
<path d="M332.103 318.193C322.142 324.204 322.173 329.674 323.836 334.838C325.499 340.001 331.613 343.589 336.682 341.655C339.547 340.562 341.623 338.072 343.396 335.569C345.169 333.067 346.834 330.388 349.319 328.591C351.803 326.794 355.405 326.106 357.901 327.888" fill="#263238"/>
<path d="M324.645 324.783C327.249 321.184 333.684 320.142 337.747 321.938C341.81 323.734 344.787 327.296 347.45 330.85C350.114 334.405 352.707 338.159 356.397 340.632C360.087 343.105 365.242 344.001 368.919 341.51C371.334 339.873 372.735 337.029 373.173 334.144C373.611 331.259 373.189 328.314 372.588 325.459C371.709 321.282 370.274 316.918 366.931 314.264C363.205 311.306 358.035 311.166 353.28 311.321C347.824 311.499 342.286 311.909 337.165 313.8C332.044 315.691 326.819 319.776 324.645 324.783Z" fill="#455A64"/>
<path d="M370.262 387.431C370.244 387.431 370.221 387.135 370.194 386.57C370.171 385.959 370.14 385.135 370.101 384.098C370.035 381.901 369.942 378.807 369.828 375.006C369.704 371.168 369.545 366.599 369.266 361.532C368.98 356.467 368.603 350.895 367.835 345.099C367.444 342.205 366.987 339.375 366.187 336.757C365.381 334.137 364.307 331.694 363.139 329.458C360.805 324.97 357.891 321.395 355.095 318.799C352.273 316.215 349.573 314.635 347.651 313.71C346.693 313.23 345.917 312.931 345.389 312.73C344.865 312.521 344.591 312.402 344.597 312.385C344.602 312.368 344.887 312.453 345.425 312.631C345.966 312.801 346.758 313.071 347.737 313.526C349.699 314.401 352.458 315.949 355.344 318.527C358.203 321.116 361.181 324.71 363.564 329.234C364.757 331.49 365.849 333.947 366.675 336.606C367.498 339.277 367.959 342.12 368.352 345.029C369.124 350.853 369.486 356.433 369.746 361.507C369.999 366.582 370.12 371.156 370.197 374.997C370.272 378.838 370.298 381.947 370.305 384.095C370.303 385.133 370.301 385.957 370.3 386.569C370.292 387.134 370.28 387.431 370.262 387.431Z" fill="#263238"/>
<path d="M373.846 391.932C373.846 391.932 373.279 390.456 372.741 387.656C372.218 384.861 371.823 380.716 372.273 375.633C372.695 370.551 373.993 364.588 376.063 358.188C378.106 351.777 380.88 344.923 383.25 337.558C384.426 333.873 385.425 330.228 386.11 326.648C386.804 323.07 387.244 319.577 387.524 316.238C388.084 309.557 388.008 303.503 387.849 298.433C387.681 293.36 387.415 289.258 387.251 286.423C387.172 285.034 387.11 283.942 387.066 283.157C387.051 282.808 387.039 282.528 387.03 282.307C387.025 282.115 387.026 282.017 387.035 282.016C387.044 282.015 387.06 282.113 387.083 282.303C387.106 282.523 387.135 282.802 387.171 283.149C387.239 283.932 387.334 285.022 387.454 286.408C387.68 289.24 388.002 293.339 388.218 298.418C388.424 303.494 388.539 309.563 388.003 316.276C387.735 319.63 387.303 323.143 386.611 326.744C385.928 330.347 384.926 334.017 383.746 337.715C381.367 345.107 378.58 351.952 376.519 358.334C374.432 364.703 373.106 370.621 372.64 375.665C372.147 380.71 372.482 384.828 372.941 387.62C373.183 389.015 373.405 390.095 373.599 390.816C373.68 391.156 373.745 391.428 373.797 391.643C373.838 391.832 373.855 391.93 373.846 391.932Z" fill="#263238"/>
<path d="M398.542 396.434H351.77L350.702 387.431H398.542V396.434Z" fill="#263238"/>
<path d="M356.789 395.409L362.637 422.416H388.052L393.523 395.409H356.789Z" fill="#263238"/>
<path d="M398.542 396.434C398.542 396.578 388.258 396.666 375.576 396.63C362.89 396.594 352.609 396.449 352.609 396.305C352.609 396.161 362.891 396.073 375.577 396.109C388.259 396.145 398.542 396.29 398.542 396.434Z" fill="#455A64"/>
<path d="M390.515 409.764C390.449 409.862 389.123 408.509 386.386 407.428C385.028 406.892 383.312 406.475 381.386 406.432C379.456 406.371 377.363 406.833 375.241 407.563C373.111 408.283 371.119 409.122 369.175 409.583C367.221 410.002 365.405 409.968 363.925 409.734C362.441 409.498 361.291 409.054 360.555 408.655C360.192 408.444 359.915 408.275 359.745 408.132C359.571 407.998 359.485 407.921 359.496 407.906C359.535 407.813 361.039 409.017 363.977 409.37C365.423 409.553 367.193 409.546 369.069 409.116C370.936 408.648 372.926 407.799 375.076 407.07C377.22 406.331 379.401 405.862 381.4 405.953C383.393 406.023 385.152 406.493 386.526 407.087C387.913 407.666 388.917 408.367 389.573 408.878C389.902 409.136 390.142 409.353 390.296 409.511C390.451 409.664 390.526 409.751 390.515 409.764Z" fill="#455A64"/>
<path d="M390.16 411.568C390.092 411.667 388.815 410.355 386.194 409.263C384.89 408.727 383.235 408.312 381.374 408.278C379.51 408.229 377.482 408.652 375.429 409.351C373.37 410.039 371.436 410.838 369.585 411.333C367.737 411.836 365.991 412.01 364.539 411.891C363.083 411.786 361.949 411.371 361.234 410.995C360.881 410.793 360.613 410.629 360.45 410.49C360.281 410.36 360.199 410.285 360.21 410.27C360.238 410.229 360.602 410.486 361.323 410.812C362.046 411.123 363.153 411.468 364.563 411.523C365.969 411.592 367.659 411.386 369.457 410.87C371.262 410.36 373.179 409.553 375.265 408.855C377.341 408.147 379.454 407.718 381.385 407.797C383.313 407.859 385.016 408.328 386.337 408.923C387.668 409.507 388.628 410.2 389.255 410.702C389.57 410.954 389.799 411.167 389.948 411.319C390.099 411.47 390.171 411.554 390.16 411.568Z" fill="white"/>
<path d="M390.978 407.974C390.914 408.066 389.536 406.696 386.738 405.506C385.349 404.919 383.598 404.398 381.613 404.282C379.627 404.144 377.462 404.653 375.273 405.403C373.07 406.141 371.025 407.037 368.991 407.451C366.958 407.818 365.093 407.701 363.57 407.452C362.045 407.184 360.856 406.745 360.093 406.339C359.715 406.126 359.427 405.955 359.251 405.808C359.07 405.67 358.981 405.592 358.992 405.577C359.02 405.537 359.409 405.809 360.181 406.156C360.955 406.497 362.13 406.872 363.628 407.088C365.121 407.286 366.95 407.358 368.901 406.979C370.835 406.562 372.889 405.655 375.107 404.909C377.317 404.151 379.573 403.632 381.644 403.802C383.702 403.95 385.487 404.525 386.889 405.168C388.301 405.803 389.331 406.529 390.007 407.059C390.345 407.327 390.594 407.549 390.753 407.712C390.911 407.871 390.99 407.96 390.978 407.974Z" fill="white"/>
<path d="M64.033 379.236C62.017 382.116 58.098 381.162 56.281 379.405C54.464 377.647 53.696 375.1 52.997 372.67C51.4 367.12 49.79 361.297 50.977 355.645C51.332 353.955 51.964 352.27 53.151 351.016C54.338 349.762 56.164 349.016 57.834 349.457C59.81 349.979 61.038 351.914 61.925 353.755C64.534 359.166 65.915 365.165 65.935 371.172C65.946 373.977 65.615 376.919 64.033 379.236Z" fill="#407BFF"/>
<g opacity="0.2">
<path d="M64.033 379.236C62.017 382.116 58.098 381.162 56.281 379.405C54.464 377.647 53.696 375.1 52.997 372.67C51.4 367.12 49.79 361.297 50.977 355.645C51.332 353.955 51.964 352.27 53.151 351.016C54.338 349.762 56.164 349.016 57.834 349.457C59.81 349.979 61.038 351.914 61.925 353.755C64.534 359.166 65.915 365.165 65.935 371.172C65.946 373.977 65.615 376.919 64.033 379.236Z" fill="black"/>
</g>
<path d="M56.478 393.818C53.181 392.117 49.298 391.896 45.638 392.501C43.672 392.826 41.621 393.415 40.283 394.892C38.945 396.369 38.691 398.969 40.228 400.238C41.143 400.993 42.418 401.108 43.604 401.095C46.47 401.061 49.649 400.557 51.939 402.281C53.245 403.265 54.115 404.9 55.676 405.384C57.204 405.857 58.928 404.956 59.738 403.577C60.548 402.198 60.575 400.474 60.197 398.921C60.197 398.919 59.8 395.532 56.478 393.818Z" fill="#407BFF"/>
<path d="M69.569 383.367C67.38 380.769 66.965 376.98 67.939 373.725C68.913 370.47 71.114 367.702 73.65 365.441C76.624 362.791 80.119 360.728 83.877 359.407C85.356 358.887 86.916 358.477 88.476 358.625C90.036 358.774 91.608 359.572 92.336 360.96C93.412 363.013 92.38 365.502 91.264 367.534C89.298 371.113 87.05 374.536 84.547 377.763C82.533 380.359 80.228 382.919 77.159 384.092C74.091 385.265 70.903 385.127 69.277 382.999" fill="#407BFF"/>
<path d="M64.169 422.674C64.131 422.676 64.07 422.21 63.987 421.365C63.894 420.413 63.778 419.217 63.639 417.794C63.473 416.291 63.253 414.503 62.836 412.556C62.42 410.614 61.769 408.509 60.932 406.374C60.066 404.252 59.009 402.323 57.775 400.78C56.549 399.23 55.124 398.109 53.784 397.462C52.449 396.802 51.251 396.534 50.423 396.415C49.588 396.33 49.121 396.264 49.12 396.226C49.12 396.189 49.588 396.183 50.446 396.206C51.296 396.263 52.543 396.478 53.951 397.118C55.363 397.744 56.875 398.883 58.161 400.465C59.457 402.04 60.552 404.011 61.433 406.171C62.284 408.343 62.926 410.47 63.323 412.454C63.719 414.435 63.901 416.243 64.019 417.758C64.132 419.274 64.175 420.502 64.196 421.351C64.216 422.202 64.206 422.672 64.169 422.674Z" fill="#263238"/>
<path d="M63.923 419.926C63.904 419.925 63.893 419.716 63.888 419.319C63.889 418.863 63.891 418.288 63.893 417.583C63.897 416.076 63.897 413.896 63.816 411.203C63.683 405.818 63.219 398.384 62.323 390.213C61.421 382.04 60.225 374.687 59.135 369.413C58.877 368.091 58.618 366.901 58.374 365.859C58.141 364.815 57.942 363.915 57.75 363.186C57.585 362.5 57.451 361.942 57.344 361.498C57.257 361.11 57.22 360.904 57.238 360.899C57.256 360.894 57.328 361.09 57.449 361.468C57.581 361.905 57.748 362.455 57.953 363.132C58.177 363.854 58.406 364.748 58.667 365.788C58.94 366.825 59.226 368.013 59.508 369.333C60.697 374.601 61.955 381.963 62.859 390.153C63.757 398.341 64.161 405.796 64.197 411.195C64.229 413.894 64.172 416.079 64.103 417.587C64.06 418.292 64.025 418.866 63.997 419.322C63.966 419.72 63.942 419.927 63.923 419.926Z" fill="#263238"/>
<path d="M63.887 405.547C63.85 405.546 63.856 404.901 63.9 403.733C63.967 402.568 64.127 400.883 64.455 398.819C64.803 396.76 65.289 394.316 66.053 391.66C66.779 388.994 67.778 386.116 69.047 383.189C71.53 377.298 74.904 372.482 77.839 369.499C78.527 368.707 79.294 368.136 79.907 367.576C80.224 367.308 80.505 367.04 80.791 366.828C81.078 366.63 81.345 366.446 81.593 366.275C82.559 365.614 83.1 365.266 83.12 365.297C83.207 365.415 80.956 366.739 78.115 369.762C75.285 372.778 72.006 377.561 69.543 383.403C68.285 386.305 67.28 389.156 66.532 391.796C65.747 394.426 65.225 396.846 64.831 398.884C64.457 400.927 64.24 402.594 64.109 403.749C64.002 404.907 63.924 405.548 63.887 405.547Z" fill="#263238"/>
</svg>
