<svg width="186" height="185" viewBox="0 0 186 185" fill="none" xmlns="http://www.w3.org/2000/svg">
<path d="M78.75 2.5H16.5C12.8312 2.5 9.3126 4.13303 6.71835 7.03984C4.12409 9.94666 2.66666 13.8891 2.66666 18V142C2.66666 146.111 4.12409 150.053 6.71835 152.96C9.3126 155.867 12.8312 157.5 16.5 157.5H99.5C103.169 157.5 106.687 155.867 109.282 152.96C111.876 150.053 113.333 146.111 113.333 142V41.25L78.75 2.5Z" stroke="white" stroke-width="5" stroke-linecap="round" stroke-linejoin="round"/>
<path d="M71.8333 2.5V33.5C71.8333 37.6109 73.2908 41.5533 75.885 44.4602C78.4793 47.367 81.9978 49 85.6667 49H113.333" stroke="white" stroke-width="5" stroke-linecap="round" stroke-linejoin="round"/>
<path d="M183.25 143C183.25 146.492 181.784 149.841 179.174 152.31C176.564 154.779 173.024 156.167 169.333 156.167H85.8333L58 182.5V77.1667C58 73.6746 59.4662 70.3257 62.0761 67.8564C64.686 65.3872 68.2257 64 71.9167 64H169.333C173.024 64 176.564 65.3872 179.174 67.8564C181.784 70.3257 183.25 73.6746 183.25 77.1667V143Z" stroke="#407BFF" stroke-width="5" stroke-linecap="round" stroke-linejoin="round"/>
<path d="M127.583 96.9165H85.8333" stroke="#407BFF" stroke-width="5" stroke-linecap="round" stroke-linejoin="round"/>
<path d="M155.417 123.25H85.8333" stroke="#407BFF" stroke-width="5" stroke-linecap="round" stroke-linejoin="round"/>
</svg>
