<svg width="500" height="366" viewBox="0 0 500 366" fill="none" xmlns="http://www.w3.org/2000/svg">
<path d="M500 320.398H0V320.648H500V320.398Z" fill="#EBEBEB"/>
<path d="M111.667 328.788H78.545V329.038H111.667V328.788Z" fill="#EBEBEB"/>
<path d="M163.5 336H133.333V336.25H163.5V336Z" fill="#EBEBEB"/>
<path d="M95.105 338.074H56.854V338.324H95.105V338.074Z" fill="#EBEBEB"/>
<path d="M449.901 337.528H434V337.778H449.901V337.528Z" fill="#EBEBEB"/>
<path d="M430.792 337.528H391.471V337.778H430.792V337.528Z" fill="#EBEBEB"/>
<path d="M280.333 328.663H250V328.913H280.333V328.663Z" fill="#EBEBEB"/>
<path d="M356.762 328.663H284.667V328.913H356.762V328.663Z" fill="#EBEBEB"/>
<path d="M293.388 204.211H264.622V320.398H293.388V204.211Z" fill="#E6E6E6"/>
<path d="M281.43 320.398H293.389V300.357H268.891L281.43 320.398Z" fill="#F5F5F5"/>
<path d="M85.62 204.211H56.854V320.398H85.62V204.211Z" fill="#E6E6E6"/>
<path d="M293.389 204.211H75.184V313.5H293.389V204.211Z" fill="#F5F5F5"/>
<path d="M284.611 237.759H83.961V213.858H284.611V237.759ZM84.961 236.759H283.611V214.858H84.961V236.759Z" fill="#EBEBEB"/>
<path d="M87.143 320.398H75.184V300.357H99.682L87.143 320.398Z" fill="#F5F5F5"/>
<path d="M284.611 303.854H83.961V246.904H284.611V303.854ZM84.961 302.854H283.611V247.904H84.961V302.854Z" fill="#EBEBEB"/>
<path d="M407.866 16.5231H180.49V173.983H407.866V16.5231Z" fill="#E6E6E6"/>
<path d="M412.046 16.5231H184.67V173.983H412.046V16.5231Z" fill="#F5F5F5"/>
<path d="M404.544 166.034V24.4727L192.171 24.4727L192.171 166.034L404.544 166.034Z" fill="white"/>
<path d="M404.545 166.034V24.473H401.386V166.034H404.545Z" fill="#E6E6E6"/>
<path d="M408.943 37.1551H187.773V42.4911H408.943V37.1551Z" fill="#F5F5F5"/>
<g opacity="0.5">
<path d="M408.33 11.264H399.349V186.153H408.33V11.264Z" fill="#F0F0F0"/>
<path d="M396.923 11.264H387.942V186.153H396.923V11.264Z" fill="#F0F0F0"/>
<path d="M385.515 11.264H376.534V186.153H385.515V11.264Z" fill="#F0F0F0"/>
<path d="M374.108 11.264H365.127V186.153H374.108V11.264Z" fill="#F0F0F0"/>
<path d="M362.701 11.264H353.72V186.153H362.701V11.264Z" fill="#F0F0F0"/>
<path d="M351.294 11.264H342.313V186.153H351.294V11.264Z" fill="#F0F0F0"/>
<path d="M339.886 11.264H330.905V186.153H339.886V11.264Z" fill="#F0F0F0"/>
<path d="M328.479 11.264H319.498V186.153H328.479V11.264Z" fill="#F0F0F0"/>
<path d="M317.072 11.264H308.091V186.153H317.072V11.264Z" fill="#F0F0F0"/>
<path d="M305.665 11.264H296.684V186.153H305.665V11.264Z" fill="#F0F0F0"/>
<path d="M294.257 11.264H285.276V186.153H294.257V11.264Z" fill="#F0F0F0"/>
<path d="M282.85 11.264H273.869V186.153H282.85V11.264Z" fill="#F0F0F0"/>
<path d="M271.443 11.264H262.462V186.153H271.443V11.264Z" fill="#F0F0F0"/>
<path d="M260.035 11.264H251.054V186.153H260.035V11.264Z" fill="#F0F0F0"/>
<path d="M248.628 11.264H239.647V186.153H248.628V11.264Z" fill="#F0F0F0"/>
</g>
<path d="M128.251 35.3311H62.349V155.175H128.251V35.3311Z" fill="#F0F0F0"/>
<path d="M142.403 35.3311H66.6V155.175H142.403V35.3311Z" fill="#F5F5F5"/>
<path d="M69.6909 38.1754V152.331H139.311V38.1754H69.6909Z" fill="white"/>
<path d="M88.245 60.8951V129.612C88.245 131.136 89.48 132.372 91.005 132.372H117.998C119.522 132.372 120.758 131.136 120.758 129.612V60.8951C120.758 59.3711 119.522 58.1351 117.998 58.1351H91.005C89.481 58.1351 88.245 59.3711 88.245 60.8951Z" fill="#F5F5F5"/>
<path d="M383.911 135.288L397.39 168.511C397.002 264.603 401.344 270.141 401.384 286.67H367.356C366.133 206.239 378.055 224.322 383.911 135.288Z" fill="#EBEBEB"/>
<path d="M402.906 233.418C375.517 158.01 312.462 181.365 315.285 208.847C318.108 236.329 418.659 276.788 402.906 233.418Z" fill="#EBEBEB"/>
<path d="M392.553 276.904C377.609 228.306 337.875 236.24 337.873 258.572C337.871 280.905 401.147 304.855 392.553 276.904Z" fill="#EBEBEB"/>
<path d="M391.486 189.184C368.028 124.225 309.601 133.163 314.306 160.57C319.012 187.977 404.977 226.544 391.486 189.184Z" fill="#EBEBEB"/>
<path d="M391.649 160.046C393.824 115.787 349.994 97.5711 353.031 124.02C356.067 150.469 390.398 185.501 391.649 160.046Z" fill="#EBEBEB"/>
<path d="M388.375 205.36C397.631 150.824 453.799 130.078 447.524 160.948C441.249 191.818 383.052 236.726 388.375 205.36Z" fill="#EBEBEB"/>
<path d="M383.646 174.53C372.738 117.342 423.199 91.929 424.651 119.501C426.103 147.073 389.919 207.42 383.646 174.53Z" fill="#EBEBEB"/>
<path d="M379.267 239.128C401.561 184.016 449.302 197.692 444.484 222.772C439.667 247.852 366.445 270.825 379.267 239.128Z" fill="#EBEBEB"/>
<path d="M390.27 277.614C389.773 242.058 422.046 232.868 422.429 253.465C422.812 274.062 390.556 298.063 390.27 277.614Z" fill="#EBEBEB"/>
<path d="M380.414 320.648C362.672 320.648 347.704 308.296 344.063 291.599C343.1 287.182 342.003 282.796 340.274 278.615L339.995 277.942H420.833L420.554 278.615C418.825 282.796 417.728 287.182 416.765 291.599C413.124 308.296 398.155 320.648 380.414 320.648Z" fill="#E0E0E0"/>
<path d="M250 365.561C357.082 365.561 443.889 360.492 443.889 354.238C443.889 347.985 357.082 342.915 250 342.915C142.918 342.915 56.111 347.985 56.111 354.238C56.111 360.492 142.918 365.561 250 365.561Z" fill="#262626"/>
<path d="M129.366 151.94L128.735 151.165C131.311 149.071 134.072 147.15 136.942 145.454L137.451 146.315C134.624 147.986 131.904 149.879 129.366 151.94Z" fill="#407BFF"/>
<path d="M108.835 180.52L107.898 180.17C111.289 171.101 116.71 162.682 123.572 155.821L124.279 156.528C117.517 163.289 112.176 171.585 108.835 180.52Z" fill="#407BFF"/>
<path d="M302.574 224.595C302.329 195.38 278.58 171.77 249.307 171.77C242.254 171.77 235.527 173.153 229.365 175.643C218.903 154.24 196.925 139.495 171.498 139.495C140.748 139.495 115.049 161.06 108.659 189.887C79.739 191.747 56.855 215.779 56.855 245.169C56.855 275.772 81.664 300.581 112.266 300.581H288.586C310.28 300.581 327.866 282.995 327.866 261.301C327.866 244.536 317.359 230.232 302.574 224.595Z" fill="#407BFF"/>
<path d="M262.91 206.687H121.81C119.427 206.687 117.477 204.737 117.477 202.354C117.477 199.971 119.427 198.021 121.81 198.021H262.91C265.293 198.021 267.243 199.971 267.243 202.354C267.243 204.737 265.293 206.687 262.91 206.687Z" fill="#263238"/>
<path d="M241.626 265.285H143.093C135.065 265.285 128.533 258.754 128.533 250.725C128.533 242.697 135.065 236.164 143.093 236.164H241.626C249.654 236.164 256.186 242.695 256.186 250.724C256.186 258.753 249.655 265.285 241.626 265.285ZM143.094 237.165C135.617 237.165 129.534 243.248 129.534 250.726C129.534 258.203 135.617 264.286 143.094 264.286H241.627C249.104 264.286 255.187 258.203 255.187 250.725C255.187 243.248 249.104 237.165 241.627 237.165H143.094Z" fill="white"/>
<path d="M166.107 261.785H143.094C137.011 261.785 132.034 256.808 132.034 250.725C132.034 244.642 137.011 239.665 143.094 239.665H166.107C172.19 239.665 177.167 244.642 177.167 250.725C177.167 256.808 172.19 261.785 166.107 261.785Z" fill="white"/>
<path d="M266.94 122.628L248.233 202.354H136.612L167.831 69.299L245.122 87.434L266.94 122.628Z" fill="#407BFF"/>
<path opacity="0.8" d="M266.94 122.628L248.233 202.354H136.612L167.831 69.299L245.122 87.434L266.94 122.628Z" fill="#FAFAFA"/>
<path d="M252.38 137.447L167.597 117.554C166.382 117.269 165.62 116.041 165.906 114.826C166.191 113.611 167.419 112.849 168.634 113.135L253.417 133.028C254.632 133.313 255.393 134.541 255.108 135.756C254.823 136.971 253.595 137.732 252.38 137.447Z" fill="#407BFF"/>
<path d="M249.142 151.246L164.359 131.353C163.144 131.068 162.382 129.84 162.668 128.625C162.953 127.41 164.181 126.648 165.396 126.934L250.179 146.827C251.394 147.112 252.156 148.34 251.87 149.555C251.586 150.77 250.358 151.531 249.142 151.246Z" fill="#407BFF"/>
<path d="M245.905 165.044L161.122 145.151C159.907 144.866 159.145 143.638 159.431 142.423C159.716 141.208 160.944 140.446 162.159 140.732L246.942 160.625C248.157 160.91 248.919 162.138 248.633 163.353C248.348 164.568 247.12 165.329 245.905 165.044Z" fill="#407BFF"/>
<path d="M242.667 178.843L157.884 158.95C156.669 158.665 155.907 157.437 156.193 156.222C156.478 155.007 157.706 154.245 158.922 154.531L243.705 174.424C244.92 174.709 245.682 175.937 245.396 177.153C245.11 178.367 243.883 179.128 242.667 178.843Z" fill="#407BFF"/>
<path d="M205.723 184.733L154.646 172.749C153.431 172.464 152.669 171.236 152.955 170.021C153.24 168.806 154.468 168.044 155.683 168.33L206.76 180.314C207.975 180.599 208.737 181.827 208.451 183.042C208.167 184.257 206.939 185.018 205.723 184.733Z" fill="#407BFF"/>
<path d="M266.94 122.628L238.434 115.939L245.122 87.434L266.94 122.628Z" fill="#407BFF"/>
<path d="M286.09 198.333L262.387 354.238H267.068L270.204 333.609H330.584L327.448 354.238H332.129L355.832 198.333H286.09ZM331.212 329.478H270.832L274.195 307.358H334.575L331.212 329.478ZM335.203 303.227H274.823L278.186 281.107H338.566L335.203 303.227ZM339.194 276.976H278.814L282.177 254.856H342.557L339.194 276.976ZM343.185 250.725H282.805L286.168 228.605H346.548L343.185 250.725ZM286.797 224.474L290.16 202.354H350.54L347.177 224.474H286.797Z" fill="#263238"/>
<path d="M365.576 198.333H295.835L319.538 354.238H324.219L321.083 333.609H381.463L384.599 354.238H389.28L365.576 198.333ZM301.127 202.354H361.507L364.87 224.474H304.49L301.127 202.354ZM305.118 228.605H365.498L368.861 250.725H308.481L305.118 228.605ZM309.109 254.856H369.489L372.852 276.976H312.472L309.109 254.856ZM313.1 281.107H373.48L376.843 303.227H316.463L313.1 281.107ZM320.455 329.478L317.092 307.358H377.472L380.835 329.478H320.455Z" fill="#263238"/>
<path opacity="0.4" d="M365.576 198.333H295.835L319.538 354.238H324.219L321.083 333.609H381.463L384.599 354.238H389.28L365.576 198.333ZM301.127 202.354H361.507L364.87 224.474H304.49L301.127 202.354ZM305.118 228.605H365.498L368.861 250.725H308.481L305.118 228.605ZM309.109 254.856H369.489L372.852 276.976H312.472L309.109 254.856ZM313.1 281.107H373.48L376.843 303.227H316.463L313.1 281.107ZM320.455 329.478L317.092 307.358H377.472L380.835 329.478H320.455Z" fill="white"/>
<path d="M335.697 46.577C337.697 48.118 339.457 49.662 341.284 51.258C343.095 52.842 344.841 54.501 346.563 56.194C349.999 59.585 353.282 63.186 356.324 67.109L357.44 68.617L357.996 69.372C358.311 69.812 358.617 70.298 358.85 70.76C359.812 72.641 360.103 74.382 360.225 75.937C360.435 79.049 359.965 81.674 359.38 84.192C358.134 89.203 356.246 93.631 353.841 97.991L348.732 95.912C349.698 91.56 350.572 87.003 350.903 82.795C351.058 80.708 351.045 78.63 350.723 77.088C350.563 76.33 350.293 75.756 350.127 75.582C350.084 75.529 350.06 75.531 350.027 75.502L349.489 74.887L348.414 73.659C345.452 70.416 342.25 67.262 338.91 64.214C335.608 61.168 332.113 58.116 328.752 55.281L335.697 46.577Z" fill="#7F3E3B"/>
<path d="M350.755 93.846L345.013 97.805L352.05 102.044C352.05 102.044 355.658 98.589 354.111 95.385L350.755 93.846Z" fill="#7F3E3B"/>
<path d="M342.152 104.417L347.451 107.392L352.051 102.044L345.014 97.805L342.152 104.417Z" fill="#7F3E3B"/>
<path d="M296.546 25.683C296.712 26.33 296.503 26.942 296.081 27.05C295.658 27.158 295.181 26.722 295.016 26.075C294.85 25.428 295.059 24.816 295.481 24.708C295.903 24.6 296.38 25.036 296.546 25.683Z" fill="#263238"/>
<path d="M296.563 26.927C296.563 26.927 296.049 31.035 294.891 33.25C296.309 34.025 298.129 33.038 298.129 33.038L296.563 26.927Z" fill="#630F0F"/>
<path d="M297.919 21.512C297.842 21.532 297.759 21.528 297.679 21.497C296.051 20.859 294.866 21.684 294.853 21.693C294.677 21.819 294.432 21.778 294.306 21.602C294.18 21.426 294.221 21.181 294.397 21.055C294.459 21.011 295.944 19.976 297.964 20.768C298.166 20.847 298.265 21.074 298.186 21.276C298.139 21.398 298.037 21.482 297.919 21.512Z" fill="#263238"/>
<path d="M317.05 27.497C317.983 33.596 319.293 42.946 324.647 45.313C324.647 45.313 325.169 51.653 314.583 55.463C302.942 59.652 306.94 51.686 306.94 51.686C312.747 47.882 310.887 43.228 308.187 39.199L317.05 27.497Z" fill="#7F3E3B"/>
<path d="M325.648 44.042C325.68 42.129 323.697 38.822 321.728 39.044C319.562 39.288 311.28 42.34 308.259 45.13C305.239 47.92 307.382 52.812 307.382 52.812L325.648 44.042Z" fill="#263238"/>
<path d="M389.503 275.2C388.979 275.741 388.389 276.186 387.927 276.132C387.733 276.109 387.473 275.99 387.338 275.553C387.267 275.323 387.297 275.096 387.427 274.878C387.992 273.93 390.401 273.44 390.503 273.42C390.571 273.406 390.639 273.434 390.679 273.49C390.719 273.546 390.722 273.62 390.687 273.679C390.49 274.013 390.03 274.656 389.503 275.2ZM387.857 274.887C387.804 274.942 387.759 274.999 387.724 275.057C387.646 275.189 387.628 275.317 387.669 275.451C387.765 275.763 387.916 275.781 387.966 275.786C388.481 275.846 389.529 274.774 390.16 273.856C389.44 274.04 388.322 274.407 387.857 274.887Z" fill="#407BFF"/>
<path d="M390.661 273.712C390.641 273.732 390.616 273.748 390.588 273.757C389.763 274.016 387.584 273.954 387.104 273.272C387.017 273.148 386.909 272.891 387.162 272.556C387.326 272.339 387.553 272.212 387.838 272.179C388.933 272.051 390.578 273.399 390.648 273.456C390.697 273.497 390.72 273.561 390.708 273.624C390.701 273.658 390.685 273.688 390.661 273.712ZM387.491 272.706C387.473 272.724 387.456 272.745 387.439 272.766C387.302 272.948 387.363 273.034 387.388 273.071C387.672 273.474 389.197 273.646 390.135 273.502C389.63 273.133 388.579 272.443 387.877 272.525C387.717 272.544 387.59 272.604 387.491 272.706Z" fill="#407BFF"/>
<path d="M329.011 296.103C328.069 296.103 327.158 295.973 326.853 295.55C326.746 295.402 326.662 295.149 326.867 294.789C326.982 294.587 327.168 294.45 327.419 294.382C328.641 294.049 331.209 295.513 331.318 295.575C331.381 295.611 331.415 295.683 331.403 295.754C331.391 295.826 331.337 295.882 331.265 295.897C330.796 295.99 329.889 296.103 329.011 296.103ZM327.846 294.678C327.724 294.678 327.61 294.69 327.509 294.718C327.349 294.762 327.237 294.841 327.169 294.962C327.046 295.178 327.09 295.285 327.135 295.347C327.477 295.822 329.334 295.832 330.7 295.64C330.019 295.29 328.705 294.678 327.846 294.678Z" fill="#407BFF"/>
<path d="M331.231 295.9C331.207 295.9 331.183 295.895 331.16 295.885C330.274 295.487 328.517 293.899 328.651 293.068C328.682 292.873 328.821 292.63 329.299 292.582C329.654 292.546 329.979 292.646 330.264 292.88C331.199 293.647 331.397 295.626 331.404 295.71C331.41 295.772 331.382 295.832 331.332 295.868C331.302 295.889 331.267 295.9 331.231 295.9ZM329.438 292.922C329.404 292.922 329.369 292.924 329.334 292.927C329.021 292.959 329.001 293.082 328.994 293.123C328.913 293.621 330.107 294.87 331.012 295.414C330.917 294.836 330.655 293.652 330.042 293.149C329.858 292.997 329.659 292.922 329.438 292.922Z" fill="#407BFF"/>
<path d="M339.309 295.726H331.962L331.231 278.714H338.577L339.309 295.726Z" fill="#7F3E3B"/>
<path d="M398.175 270.807L391.375 273.279L382.739 258.039L389.538 255.566L398.175 270.807Z" fill="#7F3E3B"/>
<path d="M390.306 272.605L396.045 266.674C396.254 266.458 396.585 266.416 396.841 266.573L402.543 270.071C403.134 270.434 403.225 271.262 402.734 271.752C400.695 273.788 399.6 274.677 397.076 277.285C395.523 278.89 390.903 284.329 388.758 286.545C386.661 288.712 384.143 286.93 384.822 285.831C387.868 280.902 389.712 276.21 389.802 273.775C389.818 273.337 390.001 272.921 390.306 272.605Z" fill="#263238"/>
<path d="M332.011 294.876H340.034C340.334 294.876 340.594 295.085 340.659 295.378L342.11 301.908C342.26 302.585 341.746 303.227 341.053 303.215C338.159 303.166 333.977 302.996 330.34 302.996C326.087 302.996 324.229 303.228 319.241 303.228C316.225 303.228 315.388 300.179 316.651 299.903C322.398 298.646 325.276 298.511 330.242 295.449C330.781 295.115 331.377 294.876 332.011 294.876Z" fill="#263238"/>
<path d="M312.053 61.17C310.924 64.017 309.724 66.675 308.481 69.39C307.252 72.094 305.922 74.755 304.557 77.409C301.776 82.702 298.806 87.91 295.11 92.972C294.179 94.233 293.18 95.483 292.081 96.72C291.532 97.348 290.968 97.933 290.313 98.583C289.451 99.401 288.623 99.99 287.825 100.502C286.221 101.512 284.702 102.174 283.197 102.793C281.698 103.404 280.211 103.899 278.73 104.339C272.808 106.082 266.985 107.088 260.977 107.642L259.857 102.241C265.207 100.305 270.651 98.302 275.66 96.058C276.904 95.485 278.117 94.891 279.258 94.282C280.386 93.672 281.468 93.006 282.263 92.368C282.663 92.058 282.985 91.748 283.153 91.538C283.499 91.135 283.923 90.651 284.299 90.157C285.073 89.169 285.832 88.098 286.56 86.971C288.046 84.746 289.431 82.337 290.763 79.89C292.107 77.442 293.386 74.926 294.633 72.386C297.12 67.321 299.53 62.066 301.753 56.942L312.053 61.17Z" fill="#7F3E3B"/>
<path d="M328.818 42.192C339.364 41.368 348.823 57 348.823 57L341.245 69.299C341.245 69.299 333.124 66.314 326.265 60.367C319.078 54.136 321.617 42.756 328.818 42.192Z" fill="#407BFF"/>
<path opacity="0.3" d="M328.163 55.361L339.25 70.292L338.749 70.904C338.749 70.904 334.934 67.868 330.515 63.56L328.163 55.361Z" fill="black"/>
<path d="M299.585 53.841C299 58.99 307.62 81.767 309.611 108.792L348.715 104.942C348.439 99.758 345.574 77.971 340.401 53.308C338.975 46.508 333.699 41.265 326.889 42.643C326.826 42.656 326.763 42.669 326.7 42.681C321.776 43.693 314.695 45.342 310.52 46.828C306.973 48.09 303.663 49.71 301.757 50.703C300.556 51.33 299.738 52.496 299.585 53.841Z" fill="#407BFF"/>
<path opacity="0.3" d="M303.548 72.759C304.208 75.509 304.898 78.489 305.578 81.659C311.527 80.25 310.379 67.059 310.499 66.889L303.548 72.759Z" fill="black"/>
<path d="M312.333 56.389C315.336 66.678 304.226 80.408 304.226 80.408L293.045 73.207C293.045 73.207 292.97 63.784 296.541 56.417C301.067 47.082 310.192 49.052 312.333 56.389Z" fill="#407BFF"/>
<path d="M260.041 101.294L255.553 100.68L255.619 110.064C255.619 110.064 261.671 110.679 265.031 106.516L264.366 104.748C263.669 102.888 262.008 101.563 260.041 101.294Z" fill="#7F3E3B"/>
<path d="M247.835 102.847L250.713 110.486L255.619 110.063L255.554 100.679L247.835 102.847Z" fill="#7F3E3B"/>
<path opacity="0.2" d="M331.232 278.718L331.642 288.283H338.992L338.582 278.718H331.232Z" fill="black"/>
<path opacity="0.2" d="M389.542 255.57L382.74 258.043L387.525 266.479L393.997 263.424L389.542 255.57Z" fill="black"/>
<path d="M317.764 18.784C319.312 26.851 320.628 31.494 317.661 36.599C313.199 44.277 302.463 43.153 298.536 35.71C295.002 29.011 293.064 16.944 300.028 11.791C306.89 6.71499 316.216 10.717 317.764 18.784Z" fill="#7F3E3B"/>
<path d="M304.167 24.167C299.25 26.625 299.141 18.771 299.557 17.104C297.708 18.875 295.208 20.667 290.667 18.709C285.087 16.303 286.667 10.001 290.667 10.084C290.667 10.084 287.704 4.38001 294.234 3.77901C297.867 3.44501 302.167 5.00101 302.167 5.00101C302.167 5.00101 304.601 -1.36498 310.517 1.71902C313.653 3.35302 316.147 8.16801 316.147 8.16801C316.147 8.16801 328.898 10.057 321.981 16.723C323.549 20.14 322.716 31.268 318.667 36.027C316.896 38.106 301.75 37.5 304.167 24.167Z" fill="#263238"/>
<path d="M313.943 11.417C313.943 11.417 316.251 8.232 316.437 0.875C321.832 6.735 313.943 11.417 313.943 11.417Z" fill="#263238"/>
<path d="M306.559 23.715C306.74 25.859 306.043 28.002 305.045 29.482C303.544 31.708 301.504 30.753 300.84 28.403C300.242 26.287 300.303 22.58 302.329 21.179C304.325 19.798 306.351 21.264 306.559 23.715Z" fill="#7F3E3B"/>
<path d="M323.483 107.426C323.483 107.426 337.281 162.481 343.896 182.965C351.141 205.396 382.561 264.225 382.561 264.225L394.893 258.864C394.893 258.864 371.114 205.298 366.033 182.883C360.519 158.556 348.715 104.942 348.715 104.942L323.483 107.426Z" fill="#263238"/>
<path d="M378.91 260.174C378.858 260.197 382.949 265.959 382.949 265.959L396.795 259.838L393.997 254.112L378.91 260.174Z" fill="#407BFF"/>
<path opacity="0.3" d="M330.687 126.817C340.466 127.753 342.973 163.63 343.63 182.145C339.583 169.41 333.068 144.78 328.553 127.288C329.158 126.907 329.865 126.737 330.687 126.817Z" fill="black"/>
<path d="M309.612 108.792C309.612 108.792 311.199 165.311 314.189 187.528C317.299 210.637 328.801 284.555 328.801 284.555H341.246C341.246 284.555 338.372 209.93 336.681 187.101C334.837 162.213 335.317 106.262 335.317 106.262L309.612 108.792Z" fill="#263238"/>
<path d="M326.325 278.717C326.268 278.719 327.312 286.251 327.312 286.251L342.442 285.731L342.585 278.714L326.325 278.717Z" fill="#407BFF"/>
</svg>
